<svg width="38" height="38" viewBox="0 0 38 38" fill="none" xmlns="http://www.w3.org/2000/svg">
<rect width="38" height="38" rx="19" fill="#767BBA" fill-opacity="0.1"/>
<g clip-path="url(#clip0_150_4270)">
<g clip-path="url(#clip1_150_4270)">
<path d="M23.5 18.4375C24.155 18.437 24.8011 18.5893 25.387 18.8822C25.9729 19.1752 26.4824 19.6007 26.875 20.125" stroke="#78E08F" stroke-width="1.5" stroke-linecap="round" stroke-linejoin="round"/>
<path d="M11.125 20.125C11.5176 19.6007 12.0271 19.1752 12.613 18.8822C13.1989 18.5893 13.845 18.437 14.5 18.4375" stroke="#78E08F" stroke-width="1.5" stroke-linecap="round" stroke-linejoin="round"/>
<path d="M19 22.9375C20.5533 22.9375 21.8125 21.6783 21.8125 20.125C21.8125 18.5717 20.5533 17.3125 19 17.3125C17.4467 17.3125 16.1875 18.5717 16.1875 20.125C16.1875 21.6783 17.4467 22.9375 19 22.9375Z" stroke="#78E08F" stroke-width="1.5" stroke-linecap="round" stroke-linejoin="round"/>
<path d="M15.0625 25.1875C15.4663 24.5023 16.0419 23.9343 16.7325 23.5397C17.4231 23.1451 18.2046 22.9375 19 22.9375C19.7954 22.9375 20.5769 23.1451 21.2675 23.5397C21.9581 23.9343 22.5337 24.5023 22.9375 25.1875" stroke="#78E08F" stroke-width="1.5" stroke-linecap="round" stroke-linejoin="round"/>
<path d="M21.3203 15.625C21.4255 15.2176 21.6428 14.8478 21.9476 14.5577C22.2524 14.2676 22.6324 14.0688 23.0446 13.9838C23.4567 13.8989 23.8843 13.9312 24.279 14.0771C24.6737 14.223 25.0195 14.4766 25.2773 14.8092C25.5351 15.1418 25.6944 15.54 25.7372 15.9586C25.78 16.3772 25.7046 16.7994 25.5195 17.1773C25.3344 17.5552 25.047 17.8736 24.69 18.0963C24.3331 18.3191 23.9208 18.4373 23.5 18.4375" stroke="#78E08F" stroke-width="1.5" stroke-linecap="round" stroke-linejoin="round"/>
<path d="M14.5 18.4375C14.0792 18.4373 13.6669 18.3191 13.3099 18.0963C12.953 17.8736 12.6656 17.5552 12.4805 17.1773C12.2954 16.7994 12.22 16.3772 12.2628 15.9586C12.3056 15.54 12.4649 15.1418 12.7227 14.8092C12.9804 14.4766 13.3263 14.223 13.721 14.0771C14.1156 13.9312 14.5433 13.8989 14.9554 13.9838C15.3675 14.0688 15.7476 14.2676 16.0523 14.5577C16.3571 14.8478 16.5745 15.2176 16.6797 15.625" stroke="#78E08F" stroke-width="1.5" stroke-linecap="round" stroke-linejoin="round"/>
</g>
<g clip-path="url(#clip2_150_4270)">
<path d="M23.5 18.4375C24.155 18.437 24.8011 18.5893 25.387 18.8822C25.9729 19.1752 26.4824 19.6007 26.875 20.125" stroke="#78E08F" stroke-width="1.5" stroke-linecap="round" stroke-linejoin="round"/>
<path d="M11.125 20.125C11.5176 19.6007 12.0271 19.1752 12.613 18.8822C13.1989 18.5893 13.845 18.437 14.5 18.4375" stroke="#78E08F" stroke-width="1.5" stroke-linecap="round" stroke-linejoin="round"/>
<path d="M19 22.9375C20.5533 22.9375 21.8125 21.6783 21.8125 20.125C21.8125 18.5717 20.5533 17.3125 19 17.3125C17.4467 17.3125 16.1875 18.5717 16.1875 20.125C16.1875 21.6783 17.4467 22.9375 19 22.9375Z" stroke="#78E08F" stroke-width="1.5" stroke-linecap="round" stroke-linejoin="round"/>
<path d="M15.0625 25.1875C15.4663 24.5023 16.0419 23.9343 16.7325 23.5397C17.4231 23.1451 18.2046 22.9375 19 22.9375C19.7954 22.9375 20.5769 23.1451 21.2675 23.5397C21.9581 23.9343 22.5337 24.5023 22.9375 25.1875" stroke="#78E08F" stroke-width="1.5" stroke-linecap="round" stroke-linejoin="round"/>
<path d="M21.3203 15.625C21.4255 15.2176 21.6428 14.8478 21.9476 14.5577C22.2524 14.2676 22.6324 14.0688 23.0446 13.9838C23.4567 13.8989 23.8843 13.9312 24.279 14.0771C24.6737 14.223 25.0195 14.4766 25.2773 14.8092C25.5351 15.1418 25.6944 15.54 25.7372 15.9586C25.78 16.3772 25.7046 16.7994 25.5195 17.1773C25.3344 17.5552 25.047 17.8736 24.69 18.0963C24.3331 18.3191 23.9208 18.4373 23.5 18.4375" stroke="#78E08F" stroke-width="1.5" stroke-linecap="round" stroke-linejoin="round"/>
<path d="M14.5 18.4375C14.0792 18.4373 13.6669 18.3191 13.3099 18.0963C12.953 17.8736 12.6656 17.5552 12.4805 17.1773C12.2954 16.7994 12.22 16.3772 12.2628 15.9586C12.3056 15.54 12.4649 15.1418 12.7227 14.8092C12.9804 14.4766 13.3263 14.223 13.721 14.0771C14.1156 13.9312 14.5433 13.8989 14.9554 13.9838C15.3675 14.0688 15.7476 14.2676 16.0523 14.5577C16.3571 14.8478 16.5745 15.2176 16.6797 15.625" stroke="#78E08F" stroke-width="1.5" stroke-linecap="round" stroke-linejoin="round"/>
</g>
</g>
<defs>
<clipPath id="clip0_150_4270">
<rect width="24" height="24" fill="white" transform="translate(7 7.33008)"/>
</clipPath>
<clipPath id="clip1_150_4270">
<rect width="18" height="18" fill="white" transform="translate(10 10)"/>
</clipPath>
<clipPath id="clip2_150_4270">
<rect width="18" height="18" fill="white" transform="translate(10 10)"/>
</clipPath>
</defs>
</svg>
