<svg width="220" height="67" viewBox="0 0 220 67" fill="none" xmlns="http://www.w3.org/2000/svg">
<path fill-rule="evenodd" clip-rule="evenodd" d="M45.8335 6.875H9.16683C6.646 6.875 4.5835 8.9375 4.5835 11.4583V43.5417C4.5835 46.0625 6.646 48.125 9.16683 48.125H45.8335C48.3543 48.125 50.4168 46.0625 50.4168 43.5417V11.4583C50.4168 8.9375 48.3543 6.875 45.8335 6.875ZM22.9168 38.9583H11.4585V34.375H22.9168V38.9583ZM22.9168 29.7917H11.4585V25.2083H22.9168V29.7917ZM22.9168 20.625H11.4585V16.0417H22.9168V20.625ZM33.9627 34.375L27.5002 27.8667L30.7314 24.6354L33.9627 27.8896L41.2272 20.625L44.4814 23.8792L33.9627 34.375Z" fill="#FFF1F1"/>
<path d="M61.411 27V15.1H68.738V16.902H63.383V20.064H68.109V21.832H63.383V25.198H68.789V27H61.411ZM71.1493 22.767V21.118H76.2493V22.767H71.1493ZM81.0626 27.221C80.5413 27.221 80.0766 27.1417 79.6686 26.983C79.2719 26.8243 78.9263 26.6147 78.6316 26.354C78.3369 26.0933 78.0933 25.81 77.9006 25.504C77.7193 25.198 77.5833 24.8977 77.4926 24.603L79.1076 23.906C79.3116 24.3707 79.5723 24.739 79.8896 25.011C80.2183 25.283 80.6149 25.419 81.0796 25.419C81.4536 25.419 81.8049 25.334 82.1336 25.164C82.4736 24.9827 82.7513 24.6993 82.9666 24.314C83.1819 23.9287 83.2896 23.4187 83.2896 22.784V15.1H85.2616V23.413C85.2616 24.025 85.1483 24.569 84.9216 25.045C84.7063 25.5097 84.4059 25.9063 84.0206 26.235C83.6353 26.5637 83.1876 26.813 82.6776 26.983C82.1676 27.1417 81.6293 27.221 81.0626 27.221ZM92.8965 27L92.8115 25.402V22.631C92.8115 22.053 92.7491 21.5713 92.6245 21.186C92.5111 20.7893 92.3185 20.489 92.0465 20.285C91.7858 20.0697 91.4345 19.962 90.9925 19.962C90.5845 19.962 90.2275 20.047 89.9215 20.217C89.6155 20.387 89.3548 20.6533 89.1395 21.016L87.4735 20.404C87.6548 20.03 87.8928 19.6843 88.1875 19.367C88.4935 19.0383 88.8731 18.7777 89.3265 18.585C89.7911 18.3923 90.3465 18.296 90.9925 18.296C91.8198 18.296 92.5111 18.4603 93.0665 18.789C93.6218 19.1063 94.0298 19.5653 94.2905 20.166C94.5625 20.7667 94.6985 21.492 94.6985 22.342L94.6475 27H92.8965ZM90.4485 27.204C89.4285 27.204 88.6351 26.9773 88.0685 26.524C87.5131 26.0707 87.2355 25.4303 87.2355 24.603C87.2355 23.719 87.5301 23.0447 88.1195 22.58C88.7201 22.1153 89.5531 21.883 90.6185 21.883H92.8965V23.345H91.2305C90.4711 23.345 89.9385 23.4527 89.6325 23.668C89.3265 23.872 89.1735 24.1667 89.1735 24.552C89.1735 24.8807 89.3038 25.1413 89.5645 25.334C89.8365 25.5153 90.2105 25.606 90.6865 25.606C91.1171 25.606 91.4911 25.5097 91.8085 25.317C92.1258 25.1243 92.3695 24.8693 92.5395 24.552C92.7208 24.2347 92.8115 23.8777 92.8115 23.481H93.3725C93.3725 24.637 93.1401 25.5493 92.6755 26.218C92.2108 26.8753 91.4685 27.204 90.4485 27.204ZM102.934 27L102.849 25.419V15.1H104.736V27H102.934ZM100.163 27.204C99.3918 27.204 98.7175 27.0227 98.1395 26.66C97.5728 26.286 97.1252 25.7647 96.7965 25.096C96.4792 24.4273 96.3205 23.6453 96.3205 22.75C96.3205 21.8433 96.4792 21.0613 96.7965 20.404C97.1252 19.7353 97.5728 19.2197 98.1395 18.857C98.7175 18.483 99.3918 18.296 100.163 18.296C100.877 18.296 101.489 18.483 101.999 18.857C102.52 19.2197 102.917 19.7353 103.189 20.404C103.461 21.0613 103.597 21.8433 103.597 22.75C103.597 23.6453 103.461 24.4273 103.189 25.096C102.917 25.7647 102.52 26.286 101.999 26.66C101.489 27.0227 100.877 27.204 100.163 27.204ZM100.639 25.47C101.069 25.47 101.449 25.3567 101.778 25.13C102.118 24.892 102.378 24.569 102.56 24.161C102.752 23.753 102.849 23.2827 102.849 22.75C102.849 22.2173 102.752 21.747 102.56 21.339C102.378 20.931 102.118 20.6137 101.778 20.387C101.449 20.1603 101.064 20.047 100.622 20.047C100.168 20.047 99.7658 20.1603 99.4145 20.387C99.0632 20.6137 98.7855 20.931 98.5815 21.339C98.3888 21.747 98.2868 22.2173 98.2755 22.75C98.2868 23.2827 98.3888 23.753 98.5815 24.161C98.7855 24.569 99.0632 24.892 99.4145 25.13C99.7772 25.3567 100.185 25.47 100.639 25.47ZM114.881 27L117.72 18.5H119.641L116.751 27H114.881ZM109.186 27L111.957 18.5H113.64L110.903 27H109.186ZM109.016 27L106.126 18.5H108.047L110.818 27H109.016ZM114.864 27L112.144 18.5H113.827L116.598 27H114.864ZM125.995 27L125.91 25.402V22.631C125.91 22.053 125.848 21.5713 125.723 21.186C125.61 20.7893 125.417 20.489 125.145 20.285C124.885 20.0697 124.533 19.962 124.091 19.962C123.683 19.962 123.326 20.047 123.02 20.217C122.714 20.387 122.454 20.6533 122.238 21.016L120.572 20.404C120.754 20.03 120.992 19.6843 121.286 19.367C121.592 19.0383 121.972 18.7777 122.425 18.585C122.89 18.3923 123.445 18.296 124.091 18.296C124.919 18.296 125.61 18.4603 126.165 18.789C126.721 19.1063 127.129 19.5653 127.389 20.166C127.661 20.7667 127.797 21.492 127.797 22.342L127.746 27H125.995ZM123.547 27.204C122.527 27.204 121.734 26.9773 121.167 26.524C120.612 26.0707 120.334 25.4303 120.334 24.603C120.334 23.719 120.629 23.0447 121.218 22.58C121.819 22.1153 122.652 21.883 123.717 21.883H125.995V23.345H124.329C123.57 23.345 123.037 23.4527 122.731 23.668C122.425 23.872 122.272 24.1667 122.272 24.552C122.272 24.8807 122.403 25.1413 122.663 25.334C122.935 25.5153 123.309 25.606 123.785 25.606C124.216 25.606 124.59 25.5097 124.907 25.317C125.225 25.1243 125.468 24.8693 125.638 24.552C125.82 24.2347 125.91 23.8777 125.91 23.481H126.471C126.471 24.637 126.239 25.5493 125.774 26.218C125.31 26.8753 124.567 27.204 123.547 27.204ZM129.895 27V15.1H131.799V27H129.895Z" fill="white"/>
<path d="M60.747 40V33.7H64.662V34.654H61.791V36.418H64.248V37.372H61.791V40H60.747ZM68.2797 40L68.2347 39.154V37.687C68.2347 37.381 68.2017 37.126 68.1357 36.922C68.0757 36.712 67.9737 36.553 67.8297 36.445C67.6917 36.331 67.5057 36.274 67.2717 36.274C67.0557 36.274 66.8667 36.319 66.7047 36.409C66.5427 36.499 66.4047 36.64 66.2907 36.832L65.4087 36.508C65.5047 36.31 65.6307 36.127 65.7867 35.959C65.9487 35.785 66.1497 35.647 66.3897 35.545C66.6357 35.443 66.9297 35.392 67.2717 35.392C67.7097 35.392 68.0757 35.479 68.3697 35.653C68.6637 35.821 68.8797 36.064 69.0177 36.382C69.1617 36.7 69.2337 37.084 69.2337 37.534L69.2067 40H68.2797ZM66.9837 40.108C66.4437 40.108 66.0237 39.988 65.7237 39.748C65.4297 39.508 65.2827 39.169 65.2827 38.731C65.2827 38.263 65.4387 37.906 65.7507 37.66C66.0687 37.414 66.5097 37.291 67.0737 37.291H68.2797V38.065H67.3977C66.9957 38.065 66.7137 38.122 66.5517 38.236C66.3897 38.344 66.3087 38.5 66.3087 38.704C66.3087 38.878 66.3777 39.016 66.5157 39.118C66.6597 39.214 66.8577 39.262 67.1097 39.262C67.3377 39.262 67.5357 39.211 67.7037 39.109C67.8717 39.007 68.0007 38.872 68.0907 38.704C68.1867 38.536 68.2347 38.347 68.2347 38.137H68.5317C68.5317 38.749 68.4087 39.232 68.1627 39.586C67.9167 39.934 67.5237 40.108 66.9837 40.108ZM71.3074 38.74L70.6954 38.047L73.0354 35.5H74.2504L71.3074 38.74ZM70.3444 40V33.7H71.3524V40H70.3444ZM73.2064 40L71.6224 37.669L72.2794 36.967L74.4034 40H73.2064ZM78.0989 40L78.0449 39.172V35.5H79.0439V40H78.0989ZM74.9849 37.804V35.5H75.9929V37.804H74.9849ZM75.9929 37.804C75.9929 38.158 76.0349 38.434 76.1189 38.632C76.2029 38.83 76.3169 38.968 76.4609 39.046C76.6109 39.124 76.7819 39.163 76.9739 39.163C77.3159 39.169 77.5799 39.058 77.7659 38.83C77.9519 38.602 78.0449 38.275 78.0449 37.849H78.4229C78.4229 38.323 78.3509 38.731 78.2069 39.073C78.0689 39.409 77.8709 39.667 77.6129 39.847C77.3609 40.021 77.0549 40.108 76.6949 40.108C76.3409 40.108 76.0349 40.036 75.7769 39.892C75.5249 39.748 75.3299 39.523 75.1919 39.217C75.0539 38.911 74.9849 38.518 74.9849 38.038V37.804H75.9929ZM80.2539 40V33.7H81.2619V40H80.2539ZM84.2619 40.108C83.7879 40.108 83.4249 39.991 83.1729 39.757C82.9269 39.517 82.8039 39.175 82.8039 38.731V34.096H83.8029V38.542C83.8029 38.752 83.8509 38.911 83.9469 39.019C84.0489 39.127 84.1959 39.181 84.3879 39.181C84.4479 39.181 84.5139 39.169 84.5859 39.145C84.6579 39.121 84.7389 39.076 84.8289 39.01L85.1979 39.775C85.0419 39.883 84.8859 39.964 84.7299 40.018C84.5739 40.078 84.4179 40.108 84.2619 40.108ZM82.0569 36.364V35.5H85.0179V36.364H82.0569ZM88.7776 40L88.7326 39.154V37.687C88.7326 37.381 88.6996 37.126 88.6336 36.922C88.5736 36.712 88.4716 36.553 88.3276 36.445C88.1896 36.331 88.0036 36.274 87.7696 36.274C87.5536 36.274 87.3646 36.319 87.2026 36.409C87.0406 36.499 86.9026 36.64 86.7886 36.832L85.9066 36.508C86.0026 36.31 86.1286 36.127 86.2846 35.959C86.4466 35.785 86.6476 35.647 86.8876 35.545C87.1336 35.443 87.4276 35.392 87.7696 35.392C88.2076 35.392 88.5736 35.479 88.8676 35.653C89.1616 35.821 89.3776 36.064 89.5156 36.382C89.6596 36.7 89.7316 37.084 89.7316 37.534L89.7046 40H88.7776ZM87.4816 40.108C86.9416 40.108 86.5216 39.988 86.2216 39.748C85.9276 39.508 85.7806 39.169 85.7806 38.731C85.7806 38.263 85.9366 37.906 86.2486 37.66C86.5666 37.414 87.0076 37.291 87.5716 37.291H88.7776V38.065H87.8956C87.4936 38.065 87.2116 38.122 87.0496 38.236C86.8876 38.344 86.8066 38.5 86.8066 38.704C86.8066 38.878 86.8756 39.016 87.0136 39.118C87.1576 39.214 87.3556 39.262 87.6076 39.262C87.8356 39.262 88.0336 39.211 88.2016 39.109C88.3696 39.007 88.4986 38.872 88.5886 38.704C88.6846 38.536 88.7326 38.347 88.7326 38.137H89.0296C89.0296 38.749 88.9066 39.232 88.6606 39.586C88.4146 39.934 88.0216 40.108 87.4816 40.108ZM92.4803 40.108C92.1803 40.108 91.9043 40.063 91.6523 39.973C91.4003 39.883 91.1843 39.757 91.0043 39.595C90.8243 39.427 90.6863 39.232 90.5903 39.01L91.4633 38.623C91.5533 38.791 91.6853 38.932 91.8593 39.046C92.0393 39.16 92.2373 39.217 92.4533 39.217C92.6873 39.217 92.8733 39.178 93.0113 39.1C93.1553 39.016 93.2273 38.902 93.2273 38.758C93.2273 38.62 93.1733 38.515 93.0653 38.443C92.9573 38.365 92.8043 38.302 92.6063 38.254L92.1833 38.137C91.7573 38.029 91.4243 37.858 91.1843 37.624C90.9443 37.384 90.8243 37.111 90.8243 36.805C90.8243 36.355 90.9683 36.007 91.2563 35.761C91.5503 35.515 91.9703 35.392 92.5163 35.392C92.7923 35.392 93.0443 35.434 93.2723 35.518C93.5063 35.596 93.7073 35.71 93.8753 35.86C94.0433 36.004 94.1603 36.175 94.2263 36.373L93.3893 36.751C93.3293 36.601 93.2153 36.487 93.0473 36.409C92.8793 36.325 92.6933 36.283 92.4893 36.283C92.2853 36.283 92.1263 36.328 92.0123 36.418C91.8983 36.502 91.8413 36.622 91.8413 36.778C91.8413 36.868 91.8923 36.952 91.9943 37.03C92.0963 37.102 92.2433 37.162 92.4353 37.21L92.9663 37.336C93.2603 37.408 93.5003 37.522 93.6863 37.678C93.8723 37.828 94.0103 37.999 94.1003 38.191C94.1903 38.377 94.2353 38.566 94.2353 38.758C94.2353 39.028 94.1573 39.265 94.0013 39.469C93.8513 39.673 93.6443 39.832 93.3803 39.946C93.1163 40.054 92.8163 40.108 92.4803 40.108ZM98.2226 38.182L98.0156 36.976L101.112 33.7H102.453L98.2226 38.182ZM97.5746 40V33.7H98.6006V40H97.5746ZM101.274 40L98.7356 36.796L99.4736 36.157L102.561 40H101.274ZM105.081 40.108C104.643 40.108 104.253 40.009 103.911 39.811C103.575 39.607 103.308 39.328 103.11 38.974C102.918 38.62 102.822 38.212 102.822 37.75C102.822 37.288 102.921 36.88 103.119 36.526C103.317 36.172 103.587 35.896 103.929 35.698C104.277 35.494 104.673 35.392 105.117 35.392C105.519 35.392 105.882 35.497 106.206 35.707C106.53 35.911 106.785 36.208 106.971 36.598C107.163 36.988 107.259 37.453 107.259 37.993H103.722L103.857 37.867C103.857 38.143 103.917 38.383 104.037 38.587C104.157 38.785 104.316 38.938 104.514 39.046C104.712 39.154 104.931 39.208 105.171 39.208C105.447 39.208 105.675 39.148 105.855 39.028C106.035 38.902 106.176 38.74 106.278 38.542L107.169 38.92C107.043 39.16 106.881 39.37 106.683 39.55C106.491 39.73 106.26 39.868 105.99 39.964C105.726 40.06 105.423 40.108 105.081 40.108ZM103.92 37.345L103.776 37.219H106.314L106.179 37.345C106.179 37.099 106.125 36.898 106.017 36.742C105.909 36.58 105.771 36.46 105.603 36.382C105.441 36.298 105.27 36.256 105.09 36.256C104.91 36.256 104.73 36.298 104.55 36.382C104.37 36.46 104.22 36.58 104.1 36.742C103.98 36.898 103.92 37.099 103.92 37.345ZM111.37 40L111.325 39.163V33.7H112.324V40H111.37ZM109.903 40.108C109.495 40.108 109.138 40.012 108.832 39.82C108.532 39.622 108.295 39.346 108.121 38.992C107.953 38.638 107.869 38.224 107.869 37.75C107.869 37.27 107.953 36.856 108.121 36.508C108.295 36.154 108.532 35.881 108.832 35.689C109.138 35.491 109.495 35.392 109.903 35.392C110.281 35.392 110.605 35.491 110.875 35.689C111.151 35.881 111.361 36.154 111.505 36.508C111.649 36.856 111.721 37.27 111.721 37.75C111.721 38.224 111.649 38.638 111.505 38.992C111.361 39.346 111.151 39.622 110.875 39.82C110.605 40.012 110.281 40.108 109.903 40.108ZM110.155 39.19C110.383 39.19 110.584 39.13 110.758 39.01C110.938 38.884 111.076 38.713 111.172 38.497C111.274 38.281 111.325 38.032 111.325 37.75C111.325 37.468 111.274 37.219 111.172 37.003C111.076 36.787 110.938 36.619 110.758 36.499C110.584 36.379 110.38 36.319 110.146 36.319C109.906 36.319 109.693 36.379 109.507 36.499C109.321 36.619 109.174 36.787 109.066 37.003C108.964 37.219 108.91 37.468 108.904 37.75C108.91 38.032 108.964 38.281 109.066 38.497C109.174 38.713 109.321 38.884 109.507 39.01C109.699 39.13 109.915 39.19 110.155 39.19ZM115.599 40.108C115.149 40.108 114.747 40.009 114.393 39.811C114.045 39.607 113.772 39.328 113.574 38.974C113.376 38.62 113.277 38.212 113.277 37.75C113.277 37.288 113.373 36.88 113.565 36.526C113.763 36.172 114.036 35.896 114.384 35.698C114.732 35.494 115.131 35.392 115.581 35.392C116.031 35.392 116.43 35.494 116.778 35.698C117.126 35.896 117.396 36.172 117.588 36.526C117.786 36.88 117.885 37.288 117.885 37.75C117.885 38.212 117.789 38.62 117.597 38.974C117.405 39.328 117.135 39.607 116.787 39.811C116.439 40.009 116.043 40.108 115.599 40.108ZM115.599 39.181C115.845 39.181 116.064 39.121 116.256 39.001C116.448 38.875 116.598 38.707 116.706 38.497C116.814 38.281 116.868 38.032 116.868 37.75C116.868 37.468 116.811 37.222 116.697 37.012C116.589 36.796 116.439 36.628 116.247 36.508C116.055 36.382 115.833 36.319 115.581 36.319C115.329 36.319 115.107 36.379 114.915 36.499C114.723 36.619 114.573 36.787 114.465 37.003C114.357 37.219 114.303 37.468 114.303 37.75C114.303 38.032 114.357 38.281 114.465 38.497C114.579 38.707 114.732 38.875 114.924 39.001C115.122 39.121 115.347 39.181 115.599 39.181ZM119.811 38.74L119.199 38.047L121.539 35.5H122.754L119.811 38.74ZM118.848 40V33.7H119.856V40H118.848ZM121.71 40L120.126 37.669L120.783 36.967L122.907 40H121.71ZM125.379 40.108C124.905 40.108 124.542 39.991 124.29 39.757C124.044 39.517 123.921 39.175 123.921 38.731V34.096H124.92V38.542C124.92 38.752 124.968 38.911 125.064 39.019C125.166 39.127 125.313 39.181 125.505 39.181C125.565 39.181 125.631 39.169 125.703 39.145C125.775 39.121 125.856 39.076 125.946 39.01L126.315 39.775C126.159 39.883 126.003 39.964 125.847 40.018C125.691 40.078 125.535 40.108 125.379 40.108ZM123.174 36.364V35.5H126.135V36.364H123.174ZM129.156 40.108C128.718 40.108 128.328 40.009 127.986 39.811C127.65 39.607 127.383 39.328 127.185 38.974C126.993 38.62 126.897 38.212 126.897 37.75C126.897 37.288 126.996 36.88 127.194 36.526C127.392 36.172 127.662 35.896 128.004 35.698C128.352 35.494 128.748 35.392 129.192 35.392C129.594 35.392 129.957 35.497 130.281 35.707C130.605 35.911 130.86 36.208 131.046 36.598C131.238 36.988 131.334 37.453 131.334 37.993H127.797L127.932 37.867C127.932 38.143 127.992 38.383 128.112 38.587C128.232 38.785 128.391 38.938 128.589 39.046C128.787 39.154 129.006 39.208 129.246 39.208C129.522 39.208 129.75 39.148 129.93 39.028C130.11 38.902 130.251 38.74 130.353 38.542L131.244 38.92C131.118 39.16 130.956 39.37 130.758 39.55C130.566 39.73 130.335 39.868 130.065 39.964C129.801 40.06 129.498 40.108 129.156 40.108ZM127.995 37.345L127.851 37.219H130.389L130.254 37.345C130.254 37.099 130.2 36.898 130.092 36.742C129.984 36.58 129.846 36.46 129.678 36.382C129.516 36.298 129.345 36.256 129.165 36.256C128.985 36.256 128.805 36.298 128.625 36.382C128.445 36.46 128.295 36.58 128.175 36.742C128.055 36.898 127.995 37.099 127.995 37.345ZM132.862 37.606C132.862 37.12 132.955 36.721 133.141 36.409C133.327 36.097 133.567 35.866 133.861 35.716C134.161 35.56 134.473 35.482 134.797 35.482V36.445C134.521 36.445 134.26 36.484 134.014 36.562C133.774 36.634 133.579 36.754 133.429 36.922C133.279 37.09 133.204 37.312 133.204 37.588L132.862 37.606ZM132.196 40V35.5H133.204V40H132.196ZM138.301 40L138.256 39.154V37.687C138.256 37.381 138.223 37.126 138.157 36.922C138.097 36.712 137.995 36.553 137.851 36.445C137.713 36.331 137.527 36.274 137.293 36.274C137.077 36.274 136.888 36.319 136.726 36.409C136.564 36.499 136.426 36.64 136.312 36.832L135.43 36.508C135.526 36.31 135.652 36.127 135.808 35.959C135.97 35.785 136.171 35.647 136.411 35.545C136.657 35.443 136.951 35.392 137.293 35.392C137.731 35.392 138.097 35.479 138.391 35.653C138.685 35.821 138.901 36.064 139.039 36.382C139.183 36.7 139.255 37.084 139.255 37.534L139.228 40H138.301ZM137.005 40.108C136.465 40.108 136.045 39.988 135.745 39.748C135.451 39.508 135.304 39.169 135.304 38.731C135.304 38.263 135.46 37.906 135.772 37.66C136.09 37.414 136.531 37.291 137.095 37.291H138.301V38.065H137.419C137.017 38.065 136.735 38.122 136.573 38.236C136.411 38.344 136.33 38.5 136.33 38.704C136.33 38.878 136.399 39.016 136.537 39.118C136.681 39.214 136.879 39.262 137.131 39.262C137.359 39.262 137.557 39.211 137.725 39.109C137.893 39.007 138.022 38.872 138.112 38.704C138.208 38.536 138.256 38.347 138.256 38.137H138.553C138.553 38.749 138.43 39.232 138.184 39.586C137.938 39.934 137.545 40.108 137.005 40.108ZM140.366 40V35.5H141.311L141.374 36.328V40H140.366ZM143.417 40V37.696H144.425V40H143.417ZM143.417 37.696C143.417 37.336 143.375 37.06 143.291 36.868C143.213 36.67 143.099 36.532 142.949 36.454C142.805 36.376 142.634 36.337 142.436 36.337C142.1 36.331 141.839 36.442 141.653 36.67C141.467 36.898 141.374 37.225 141.374 37.651H140.996C140.996 37.177 141.065 36.772 141.203 36.436C141.341 36.094 141.539 35.836 141.797 35.662C142.055 35.482 142.361 35.392 142.715 35.392C143.075 35.392 143.381 35.464 143.633 35.608C143.891 35.752 144.086 35.977 144.218 36.283C144.356 36.583 144.425 36.976 144.425 37.462V37.696H143.417ZM150.874 40.108C150.238 40.108 149.671 39.97 149.173 39.694C148.681 39.412 148.294 39.028 148.012 38.542C147.73 38.05 147.589 37.489 147.589 36.859C147.589 36.217 147.73 35.653 148.012 35.167C148.294 34.675 148.681 34.291 149.173 34.015C149.671 33.733 150.238 33.592 150.874 33.592C151.24 33.592 151.582 33.649 151.9 33.763C152.224 33.877 152.515 34.033 152.773 34.231C153.031 34.423 153.241 34.648 153.403 34.906L152.557 35.446C152.443 35.272 152.296 35.116 152.116 34.978C151.936 34.84 151.738 34.735 151.522 34.663C151.312 34.585 151.096 34.546 150.874 34.546C150.442 34.546 150.058 34.645 149.722 34.843C149.392 35.041 149.131 35.314 148.939 35.662C148.747 36.004 148.651 36.403 148.651 36.859C148.651 37.303 148.744 37.699 148.93 38.047C149.122 38.395 149.386 38.668 149.722 38.866C150.064 39.064 150.457 39.163 150.901 39.163C151.249 39.163 151.561 39.091 151.837 38.947C152.113 38.803 152.329 38.602 152.485 38.344C152.647 38.086 152.728 37.789 152.728 37.453L153.727 37.327C153.727 37.897 153.604 38.392 153.358 38.812C153.118 39.226 152.782 39.547 152.35 39.775C151.924 39.997 151.432 40.108 150.874 40.108ZM151.216 37.534V36.688H153.727V37.39L153.169 37.534H151.216ZM154.699 40V35.5H155.698V40H154.699ZM155.203 34.645C155.041 34.645 154.9 34.588 154.78 34.474C154.666 34.354 154.609 34.213 154.609 34.051C154.609 33.889 154.666 33.751 154.78 33.637C154.9 33.523 155.041 33.466 155.203 33.466C155.365 33.466 155.503 33.523 155.617 33.637C155.737 33.751 155.797 33.889 155.797 34.051C155.797 34.213 155.737 34.354 155.617 34.474C155.503 34.588 155.365 34.645 155.203 34.645ZM158.911 41.917C158.593 41.917 158.305 41.89 158.047 41.836C157.795 41.782 157.582 41.719 157.408 41.647C157.234 41.575 157.099 41.506 157.003 41.44L157.39 40.63C157.474 40.672 157.585 40.723 157.723 40.783C157.867 40.849 158.035 40.906 158.227 40.954C158.419 41.002 158.635 41.026 158.875 41.026C159.133 41.026 159.364 40.972 159.568 40.864C159.772 40.762 159.931 40.603 160.045 40.387C160.159 40.171 160.216 39.895 160.216 39.559V35.5H161.224V39.532C161.224 40.042 161.128 40.474 160.936 40.828C160.744 41.188 160.474 41.458 160.126 41.638C159.778 41.824 159.373 41.917 158.911 41.917ZM158.758 39.91C158.35 39.91 157.993 39.817 157.687 39.631C157.387 39.445 157.15 39.187 156.976 38.857C156.808 38.521 156.724 38.134 156.724 37.696C156.724 37.228 156.808 36.823 156.976 36.481C157.15 36.139 157.387 35.872 157.687 35.68C157.993 35.488 158.35 35.392 158.758 35.392C159.124 35.392 159.442 35.488 159.712 35.68C159.988 35.872 160.201 36.142 160.351 36.49C160.501 36.832 160.576 37.237 160.576 37.705C160.576 38.149 160.501 38.536 160.351 38.866C160.201 39.196 159.988 39.454 159.712 39.64C159.442 39.82 159.124 39.91 158.758 39.91ZM159.037 39.055C159.265 39.055 159.463 38.995 159.631 38.875C159.805 38.755 159.94 38.593 160.036 38.389C160.132 38.179 160.18 37.939 160.18 37.669C160.18 37.393 160.132 37.153 160.036 36.949C159.94 36.739 159.805 36.577 159.631 36.463C159.457 36.343 159.256 36.283 159.028 36.283C158.788 36.283 158.575 36.343 158.389 36.463C158.209 36.577 158.065 36.739 157.957 36.949C157.855 37.153 157.804 37.393 157.804 37.669C157.804 37.939 157.855 38.179 157.957 38.389C158.065 38.593 158.212 38.755 158.398 38.875C158.584 38.995 158.797 39.055 159.037 39.055ZM162.491 40V35.5H163.49V40H162.491ZM162.995 34.645C162.833 34.645 162.692 34.588 162.572 34.474C162.458 34.354 162.401 34.213 162.401 34.051C162.401 33.889 162.458 33.751 162.572 33.637C162.692 33.523 162.833 33.466 162.995 33.466C163.157 33.466 163.295 33.523 163.409 33.637C163.529 33.751 163.589 33.889 163.589 34.051C163.589 34.213 163.529 34.354 163.409 34.474C163.295 34.588 163.157 34.645 162.995 34.645ZM169.621 40.126C169.123 40.126 168.685 40.027 168.307 39.829C167.935 39.625 167.644 39.34 167.434 38.974C167.23 38.608 167.128 38.182 167.128 37.696V33.7H168.172V37.696C168.172 37.99 168.232 38.248 168.352 38.47C168.478 38.686 168.652 38.857 168.874 38.983C169.096 39.103 169.351 39.163 169.639 39.163C169.933 39.163 170.191 39.103 170.413 38.983C170.641 38.857 170.815 38.686 170.935 38.47C171.055 38.248 171.115 37.99 171.115 37.696V33.7H172.159V37.696C172.159 38.182 172.054 38.608 171.844 38.974C171.64 39.34 171.346 39.625 170.962 39.829C170.584 40.027 170.137 40.126 169.621 40.126ZM173.464 40V35.5H174.409L174.472 36.328V40H173.464ZM176.515 40V37.696H177.523V40H176.515ZM176.515 37.696C176.515 37.336 176.473 37.06 176.389 36.868C176.311 36.67 176.197 36.532 176.047 36.454C175.903 36.376 175.732 36.337 175.534 36.337C175.198 36.331 174.937 36.442 174.751 36.67C174.565 36.898 174.472 37.225 174.472 37.651H174.094C174.094 37.177 174.163 36.772 174.301 36.436C174.439 36.094 174.637 35.836 174.895 35.662C175.153 35.482 175.459 35.392 175.813 35.392C176.173 35.392 176.479 35.464 176.731 35.608C176.989 35.752 177.184 35.977 177.316 36.283C177.454 36.583 177.523 36.976 177.523 37.462V37.696H176.515ZM178.643 40V33.7H179.651V40H178.643ZM181.694 40V37.696H182.702V40H181.694ZM181.694 37.696C181.694 37.336 181.652 37.06 181.568 36.868C181.484 36.67 181.367 36.532 181.217 36.454C181.073 36.376 180.905 36.337 180.713 36.337C180.371 36.331 180.107 36.442 179.921 36.67C179.741 36.898 179.651 37.225 179.651 37.651H179.264C179.264 37.177 179.333 36.772 179.471 36.436C179.615 36.094 179.816 35.836 180.074 35.662C180.332 35.482 180.638 35.392 180.992 35.392C181.346 35.392 181.652 35.464 181.91 35.608C182.168 35.752 182.363 35.977 182.495 36.283C182.633 36.583 182.702 36.976 182.702 37.462V37.696H181.694ZM186.558 40L186.513 39.154V37.687C186.513 37.381 186.48 37.126 186.414 36.922C186.354 36.712 186.252 36.553 186.108 36.445C185.97 36.331 185.784 36.274 185.55 36.274C185.334 36.274 185.145 36.319 184.983 36.409C184.821 36.499 184.683 36.64 184.569 36.832L183.687 36.508C183.783 36.31 183.909 36.127 184.065 35.959C184.227 35.785 184.428 35.647 184.668 35.545C184.914 35.443 185.208 35.392 185.55 35.392C185.988 35.392 186.354 35.479 186.648 35.653C186.942 35.821 187.158 36.064 187.296 36.382C187.44 36.7 187.512 37.084 187.512 37.534L187.485 40H186.558ZM185.262 40.108C184.722 40.108 184.302 39.988 184.002 39.748C183.708 39.508 183.561 39.169 183.561 38.731C183.561 38.263 183.717 37.906 184.029 37.66C184.347 37.414 184.788 37.291 185.352 37.291H186.558V38.065H185.676C185.274 38.065 184.992 38.122 184.83 38.236C184.668 38.344 184.587 38.5 184.587 38.704C184.587 38.878 184.656 39.016 184.794 39.118C184.938 39.214 185.136 39.262 185.388 39.262C185.616 39.262 185.814 39.211 185.982 39.109C186.15 39.007 186.279 38.872 186.369 38.704C186.465 38.536 186.513 38.347 186.513 38.137H186.81C186.81 38.749 186.687 39.232 186.441 39.586C186.195 39.934 185.802 40.108 185.262 40.108ZM190.261 40.108C189.961 40.108 189.685 40.063 189.433 39.973C189.181 39.883 188.965 39.757 188.785 39.595C188.605 39.427 188.467 39.232 188.371 39.01L189.244 38.623C189.334 38.791 189.466 38.932 189.64 39.046C189.82 39.16 190.018 39.217 190.234 39.217C190.468 39.217 190.654 39.178 190.792 39.1C190.936 39.016 191.008 38.902 191.008 38.758C191.008 38.62 190.954 38.515 190.846 38.443C190.738 38.365 190.585 38.302 190.387 38.254L189.964 38.137C189.538 38.029 189.205 37.858 188.965 37.624C188.725 37.384 188.605 37.111 188.605 36.805C188.605 36.355 188.749 36.007 189.037 35.761C189.331 35.515 189.751 35.392 190.297 35.392C190.573 35.392 190.825 35.434 191.053 35.518C191.287 35.596 191.488 35.71 191.656 35.86C191.824 36.004 191.941 36.175 192.007 36.373L191.17 36.751C191.11 36.601 190.996 36.487 190.828 36.409C190.66 36.325 190.474 36.283 190.27 36.283C190.066 36.283 189.907 36.328 189.793 36.418C189.679 36.502 189.622 36.622 189.622 36.778C189.622 36.868 189.673 36.952 189.775 37.03C189.877 37.102 190.024 37.162 190.216 37.21L190.747 37.336C191.041 37.408 191.281 37.522 191.467 37.678C191.653 37.828 191.791 37.999 191.881 38.191C191.971 38.377 192.016 38.566 192.016 38.758C192.016 39.028 191.938 39.265 191.782 39.469C191.632 39.673 191.425 39.832 191.161 39.946C190.897 40.054 190.597 40.108 190.261 40.108Z" fill="white"/>
</svg>
