<svg width="103" height="103" viewBox="0 0 103 103" fill="none" xmlns="http://www.w3.org/2000/svg">
<path d="M51.5 6.4375C26.3937 6.4375 6.4375 26.3937 6.4375 51.5C6.4375 76.6062 26.3937 96.5625 51.5 96.5625C76.6062 96.5625 96.5625 76.6062 96.5625 51.5C96.5625 26.3937 76.6062 6.4375 51.5 6.4375ZM51.5 90.125C30.2563 90.125 12.875 72.7438 12.875 51.5C12.875 30.2563 30.2563 12.875 51.5 12.875C72.7438 12.875 90.125 30.2563 90.125 51.5C90.125 72.7438 72.7438 90.125 51.5 90.125Z" fill="#F24822"/>
<path d="M68.8812 74.0312L51.5 56.65L34.1188 74.0312L28.9688 68.8812L46.35 51.5L28.9688 34.1188L34.1188 28.9688L51.5 46.35L68.8812 28.9688L74.0312 34.1188L56.65 51.5L74.0312 68.8812L68.8812 74.0312Z" fill="#F24822"/>
</svg>
