<svg xmlns="http://www.w3.org/2000/svg" xmlns:xlink="http://www.w3.org/1999/xlink" width="220" zoomAndPan="magnify" viewBox="0 0 165 50.249999" height="67" preserveAspectRatio="xMidYMid meet" version="1.0"><path fill="#fff1f1" d="M 37.410156 7.152344 L 6.625 7.152344 C 4.507812 7.152344 2.777344 8.882812 2.777344 10.996094 L 2.777344 37.886719 C 2.777344 40 4.507812 41.730469 6.625 41.730469 L 37.410156 41.730469 C 39.527344 41.730469 41.261719 40 41.261719 37.886719 L 41.261719 10.996094 C 41.261719 8.882812 39.527344 7.152344 37.410156 7.152344 Z M 18.171875 34.046875 L 8.550781 34.046875 L 8.550781 30.203125 L 18.171875 30.203125 Z M 18.171875 26.363281 L 8.550781 26.363281 L 8.550781 22.519531 L 18.171875 22.519531 Z M 18.171875 18.679688 L 8.550781 18.679688 L 8.550781 14.835938 L 18.171875 14.835938 Z M 27.445312 30.203125 L 22.019531 24.75 L 24.730469 22.039062 L 27.445312 24.769531 L 33.542969 18.679688 L 36.277344 21.40625 Z M 27.445312 30.203125 " fill-opacity="1" fill-rule="evenodd"/><path fill="#ffffff" d="M 50.492188 24.023438 L 50.492188 14.046875 L 56.644531 14.046875 L 56.644531 15.558594 L 52.148438 15.558594 L 52.148438 18.207031 L 56.113281 18.207031 L 56.113281 19.691406 L 52.148438 19.691406 L 52.148438 22.511719 L 56.683594 22.511719 L 56.683594 24.023438 Z M 58.667969 20.472656 L 58.667969 19.09375 L 62.949219 19.09375 L 62.949219 20.472656 Z M 66.992188 24.207031 C 66.554688 24.207031 66.164062 24.140625 65.820312 24.007812 C 65.488281 23.875 65.195312 23.699219 64.949219 23.480469 C 64.703125 23.261719 64.496094 23.023438 64.335938 22.769531 C 64.183594 22.511719 64.070312 22.261719 63.992188 22.011719 L 65.347656 21.429688 C 65.519531 21.820312 65.738281 22.128906 66.003906 22.355469 C 66.28125 22.582031 66.613281 22.699219 67.003906 22.699219 C 67.320312 22.699219 67.613281 22.625 67.890625 22.484375 C 68.175781 22.332031 68.410156 22.09375 68.589844 21.769531 C 68.769531 21.449219 68.859375 21.019531 68.859375 20.488281 L 68.859375 14.046875 L 70.515625 14.046875 L 70.515625 21.015625 C 70.515625 21.527344 70.421875 21.984375 70.230469 22.382812 C 70.050781 22.773438 69.796875 23.105469 69.472656 23.382812 C 69.152344 23.65625 68.773438 23.867188 68.347656 24.007812 C 67.917969 24.140625 67.464844 24.207031 66.992188 24.207031 Z M 76.925781 24.023438 L 76.855469 22.683594 L 76.855469 20.359375 C 76.855469 19.875 76.804688 19.472656 76.699219 19.148438 C 76.601562 18.816406 76.441406 18.566406 76.214844 18.394531 C 75.992188 18.214844 75.699219 18.125 75.328125 18.125 C 74.984375 18.125 74.6875 18.195312 74.429688 18.335938 C 74.171875 18.480469 73.953125 18.703125 73.773438 19.007812 L 72.375 18.492188 C 72.527344 18.179688 72.726562 17.890625 72.972656 17.625 C 73.230469 17.347656 73.546875 17.128906 73.929688 16.96875 C 74.320312 16.808594 74.785156 16.726562 75.328125 16.726562 C 76.023438 16.726562 76.601562 16.863281 77.070312 17.140625 C 77.535156 17.40625 77.878906 17.789062 78.097656 18.292969 C 78.324219 18.796875 78.441406 19.40625 78.441406 20.117188 L 78.398438 24.023438 Z M 74.871094 24.195312 C 74.015625 24.195312 73.347656 24.003906 72.871094 23.625 C 72.40625 23.242188 72.171875 22.707031 72.171875 22.011719 C 72.171875 21.273438 72.421875 20.707031 72.914062 20.316406 C 73.421875 19.929688 74.121094 19.734375 75.015625 19.734375 L 76.925781 19.734375 L 76.925781 20.957031 L 75.527344 20.957031 C 74.890625 20.957031 74.441406 21.050781 74.1875 21.230469 C 73.929688 21.402344 73.800781 21.648438 73.800781 21.96875 C 73.800781 22.246094 73.910156 22.464844 74.128906 22.625 C 74.355469 22.777344 74.671875 22.855469 75.070312 22.855469 C 75.433594 22.855469 75.746094 22.773438 76.011719 22.613281 C 76.28125 22.449219 76.484375 22.238281 76.625 21.96875 C 76.777344 21.703125 76.855469 21.40625 76.855469 21.074219 L 77.328125 21.074219 C 77.328125 22.042969 77.132812 22.804688 76.742188 23.367188 C 76.351562 23.917969 75.726562 24.195312 74.871094 24.195312 Z M 85.355469 24.023438 L 85.28125 22.699219 L 85.28125 14.046875 L 86.867188 14.046875 L 86.867188 24.023438 Z M 83.027344 24.195312 C 82.378906 24.195312 81.8125 24.042969 81.328125 23.738281 C 80.851562 23.425781 80.476562 22.988281 80.199219 22.425781 C 79.933594 21.867188 79.800781 21.210938 79.800781 20.460938 C 79.800781 19.699219 79.933594 19.042969 80.199219 18.492188 C 80.476562 17.933594 80.851562 17.5 81.328125 17.195312 C 81.8125 16.882812 82.378906 16.726562 83.027344 16.726562 C 83.628906 16.726562 84.140625 16.882812 84.570312 17.195312 C 85.007812 17.5 85.339844 17.933594 85.570312 18.492188 C 85.796875 19.042969 85.910156 19.699219 85.910156 20.460938 C 85.910156 21.210938 85.796875 21.867188 85.570312 22.425781 C 85.339844 22.988281 85.007812 23.425781 84.570312 23.738281 C 84.140625 24.042969 83.628906 24.195312 83.027344 24.195312 Z M 83.425781 22.738281 C 83.789062 22.738281 84.109375 22.644531 84.382812 22.457031 C 84.667969 22.253906 84.886719 21.984375 85.039062 21.644531 C 85.203125 21.300781 85.28125 20.90625 85.28125 20.460938 C 85.28125 20.011719 85.203125 19.621094 85.039062 19.277344 C 84.886719 18.933594 84.667969 18.667969 84.382812 18.480469 C 84.109375 18.289062 83.785156 18.195312 83.414062 18.195312 C 83.03125 18.195312 82.695312 18.289062 82.398438 18.480469 C 82.105469 18.667969 81.871094 18.933594 81.699219 19.277344 C 81.539062 19.621094 81.453125 20.011719 81.441406 20.460938 C 81.453125 20.90625 81.539062 21.300781 81.699219 21.644531 C 81.871094 21.984375 82.105469 22.253906 82.398438 22.457031 C 82.703125 22.644531 83.046875 22.738281 83.425781 22.738281 Z M 95.386719 24.023438 L 97.769531 16.898438 L 99.382812 16.898438 L 96.957031 24.023438 Z M 90.605469 24.023438 L 92.929688 16.898438 L 94.34375 16.898438 L 92.046875 24.023438 Z M 90.460938 24.023438 L 88.035156 16.898438 L 89.648438 16.898438 L 91.972656 24.023438 Z M 95.371094 24.023438 L 93.085938 16.898438 L 94.5 16.898438 L 96.828125 24.023438 Z M 104.71875 24.023438 L 104.644531 22.683594 L 104.644531 20.359375 C 104.644531 19.875 104.59375 19.472656 104.488281 19.148438 C 104.394531 18.816406 104.230469 18.566406 104.003906 18.394531 C 103.785156 18.214844 103.488281 18.125 103.117188 18.125 C 102.777344 18.125 102.476562 18.195312 102.21875 18.335938 C 101.960938 18.480469 101.742188 18.703125 101.5625 19.007812 L 100.164062 18.492188 C 100.316406 18.179688 100.515625 17.890625 100.761719 17.625 C 101.019531 17.347656 101.339844 17.128906 101.71875 16.96875 C 102.109375 16.808594 102.574219 16.726562 103.117188 16.726562 C 103.8125 16.726562 104.394531 16.863281 104.859375 17.140625 C 105.328125 17.40625 105.667969 17.789062 105.886719 18.292969 C 106.117188 18.796875 106.230469 19.40625 106.230469 20.117188 L 106.1875 24.023438 Z M 102.660156 24.195312 C 101.804688 24.195312 101.140625 24.003906 100.664062 23.625 C 100.195312 23.242188 99.964844 22.707031 99.964844 22.011719 C 99.964844 21.273438 100.210938 20.707031 100.707031 20.316406 C 101.210938 19.929688 101.910156 19.734375 102.804688 19.734375 L 104.71875 19.734375 L 104.71875 20.957031 L 103.316406 20.957031 C 102.679688 20.957031 102.234375 21.050781 101.976562 21.230469 C 101.71875 21.402344 101.589844 21.648438 101.589844 21.96875 C 101.589844 22.246094 101.699219 22.464844 101.917969 22.625 C 102.148438 22.777344 102.460938 22.855469 102.859375 22.855469 C 103.222656 22.855469 103.539062 22.773438 103.804688 22.613281 C 104.070312 22.449219 104.273438 22.238281 104.417969 21.96875 C 104.570312 21.703125 104.644531 21.40625 104.644531 21.074219 L 105.117188 21.074219 C 105.117188 22.042969 104.921875 22.804688 104.53125 23.367188 C 104.140625 23.917969 103.519531 24.195312 102.660156 24.195312 Z M 107.992188 24.023438 L 107.992188 14.046875 L 109.589844 14.046875 L 109.589844 24.023438 Z M 107.992188 24.023438 " fill-opacity="1" fill-rule="nonzero"/><path fill="#ffffff" d="M 49.933594 34.917969 L 49.933594 29.640625 L 53.21875 29.640625 L 53.21875 30.4375 L 50.808594 30.4375 L 50.808594 31.917969 L 52.871094 31.917969 L 52.871094 32.71875 L 50.808594 32.71875 L 50.808594 34.917969 Z M 56.257812 34.917969 L 56.21875 34.210938 L 56.21875 32.980469 C 56.21875 32.722656 56.191406 32.511719 56.136719 32.339844 C 56.085938 32.164062 56 32.03125 55.878906 31.941406 C 55.765625 31.84375 55.609375 31.796875 55.410156 31.796875 C 55.230469 31.796875 55.070312 31.835938 54.933594 31.910156 C 54.800781 31.984375 54.683594 32.101562 54.585938 32.265625 L 53.847656 31.992188 C 53.929688 31.828125 54.035156 31.671875 54.164062 31.53125 C 54.300781 31.386719 54.46875 31.269531 54.671875 31.183594 C 54.878906 31.101562 55.125 31.058594 55.410156 31.058594 C 55.777344 31.058594 56.085938 31.128906 56.332031 31.277344 C 56.582031 31.417969 56.761719 31.621094 56.878906 31.886719 C 57 32.152344 57.058594 32.476562 57.058594 32.851562 L 57.035156 34.917969 Z M 55.167969 35.011719 C 54.714844 35.011719 54.363281 34.910156 54.113281 34.707031 C 53.863281 34.507812 53.742188 34.222656 53.742188 33.855469 C 53.742188 33.464844 53.871094 33.164062 54.132812 32.957031 C 54.402344 32.753906 54.773438 32.648438 55.246094 32.648438 L 56.257812 32.648438 L 56.257812 33.296875 L 55.515625 33.296875 C 55.179688 33.296875 54.941406 33.34375 54.808594 33.441406 C 54.671875 33.53125 54.601562 33.664062 54.601562 33.832031 C 54.601562 33.980469 54.660156 34.09375 54.777344 34.179688 C 54.898438 34.261719 55.0625 34.300781 55.277344 34.300781 C 55.46875 34.300781 55.632812 34.257812 55.773438 34.171875 C 55.914062 34.085938 56.023438 33.972656 56.097656 33.832031 C 56.179688 33.691406 56.21875 33.535156 56.21875 33.359375 L 56.46875 33.359375 C 56.46875 33.871094 56.367188 34.277344 56.160156 34.574219 C 55.953125 34.863281 55.625 35.011719 55.167969 35.011719 Z M 58.800781 33.863281 L 58.285156 33.28125 L 60.25 31.148438 L 61.269531 31.148438 Z M 57.992188 34.917969 L 57.992188 29.640625 L 58.835938 29.640625 L 58.835938 34.917969 Z M 60.394531 34.917969 L 59.066406 32.964844 L 59.617188 32.378906 L 61.398438 34.917969 Z M 64.503906 34.917969 L 64.457031 34.226562 L 64.457031 31.148438 L 65.296875 31.148438 L 65.296875 34.917969 Z M 61.886719 33.078125 L 61.886719 31.148438 L 62.734375 31.148438 L 62.734375 33.078125 Z M 62.734375 33.078125 C 62.734375 33.375 62.769531 33.605469 62.839844 33.773438 C 62.910156 33.9375 63.007812 34.054688 63.128906 34.121094 C 63.253906 34.183594 63.398438 34.21875 63.558594 34.21875 C 63.84375 34.222656 64.066406 34.128906 64.222656 33.9375 C 64.378906 33.746094 64.457031 33.472656 64.457031 33.117188 L 64.773438 33.117188 C 64.773438 33.515625 64.714844 33.855469 64.59375 34.144531 C 64.476562 34.425781 64.3125 34.640625 64.09375 34.792969 C 63.882812 34.9375 63.625 35.011719 63.324219 35.011719 C 63.027344 35.011719 62.769531 34.949219 62.550781 34.828125 C 62.339844 34.707031 62.175781 34.519531 62.0625 34.261719 C 61.945312 34.007812 61.886719 33.675781 61.886719 33.273438 L 61.886719 33.078125 Z M 66.3125 34.917969 L 66.3125 29.640625 L 67.15625 29.640625 L 67.15625 34.917969 Z M 69.675781 35.011719 C 69.277344 35.011719 68.972656 34.914062 68.761719 34.714844 C 68.554688 34.515625 68.453125 34.226562 68.453125 33.855469 L 68.453125 29.972656 L 69.292969 29.972656 L 69.292969 33.699219 C 69.292969 33.875 69.332031 34.007812 69.414062 34.097656 C 69.496094 34.1875 69.621094 34.234375 69.78125 34.234375 C 69.832031 34.234375 69.886719 34.222656 69.949219 34.203125 C 70.007812 34.183594 70.078125 34.144531 70.152344 34.089844 L 70.460938 34.730469 C 70.332031 34.820312 70.199219 34.890625 70.070312 34.933594 C 69.9375 34.984375 69.808594 35.011719 69.675781 35.011719 Z M 67.824219 31.871094 L 67.824219 31.148438 L 70.3125 31.148438 L 70.3125 31.871094 Z M 73.46875 34.917969 L 73.429688 34.210938 L 73.429688 32.980469 C 73.429688 32.722656 73.402344 32.511719 73.347656 32.339844 C 73.296875 32.164062 73.210938 32.03125 73.089844 31.941406 C 72.976562 31.84375 72.820312 31.796875 72.621094 31.796875 C 72.441406 31.796875 72.28125 31.835938 72.144531 31.910156 C 72.011719 31.984375 71.894531 32.101562 71.796875 32.265625 L 71.058594 31.992188 C 71.136719 31.828125 71.246094 31.671875 71.375 31.53125 C 71.511719 31.386719 71.679688 31.269531 71.882812 31.183594 C 72.089844 31.101562 72.335938 31.058594 72.621094 31.058594 C 72.988281 31.058594 73.296875 31.128906 73.542969 31.277344 C 73.789062 31.417969 73.972656 31.621094 74.089844 31.886719 C 74.207031 32.152344 74.269531 32.476562 74.269531 32.851562 L 74.246094 34.917969 Z M 72.378906 35.011719 C 71.925781 35.011719 71.574219 34.910156 71.320312 34.707031 C 71.074219 34.507812 70.953125 34.222656 70.953125 33.855469 C 70.953125 33.464844 71.082031 33.164062 71.34375 32.957031 C 71.613281 32.753906 71.980469 32.648438 72.457031 32.648438 L 73.46875 32.648438 L 73.46875 33.296875 L 72.726562 33.296875 C 72.390625 33.296875 72.152344 33.34375 72.015625 33.441406 C 71.882812 33.53125 71.8125 33.664062 71.8125 33.832031 C 71.8125 33.980469 71.871094 34.09375 71.988281 34.179688 C 72.109375 34.261719 72.273438 34.300781 72.484375 34.300781 C 72.675781 34.300781 72.84375 34.257812 72.984375 34.171875 C 73.125 34.085938 73.234375 33.972656 73.308594 33.832031 C 73.390625 33.691406 73.429688 33.535156 73.429688 33.359375 L 73.679688 33.359375 C 73.679688 33.871094 73.578125 34.277344 73.371094 34.574219 C 73.164062 34.863281 72.832031 35.011719 72.378906 35.011719 Z M 76.578125 35.011719 C 76.324219 35.011719 76.09375 34.972656 75.882812 34.898438 C 75.671875 34.820312 75.488281 34.714844 75.339844 34.582031 C 75.1875 34.4375 75.070312 34.277344 74.992188 34.089844 L 75.722656 33.765625 C 75.800781 33.90625 75.910156 34.023438 76.054688 34.121094 C 76.207031 34.214844 76.375 34.261719 76.554688 34.261719 C 76.75 34.261719 76.90625 34.230469 77.023438 34.164062 C 77.144531 34.09375 77.203125 34 77.203125 33.878906 C 77.203125 33.761719 77.160156 33.675781 77.070312 33.613281 C 76.976562 33.550781 76.847656 33.496094 76.683594 33.457031 L 76.328125 33.359375 C 75.96875 33.265625 75.691406 33.125 75.488281 32.929688 C 75.289062 32.726562 75.1875 32.496094 75.1875 32.242188 C 75.1875 31.863281 75.308594 31.574219 75.550781 31.367188 C 75.796875 31.160156 76.148438 31.058594 76.605469 31.058594 C 76.839844 31.058594 77.050781 31.09375 77.242188 31.164062 C 77.4375 31.226562 77.605469 31.324219 77.75 31.449219 C 77.890625 31.570312 77.988281 31.714844 78.042969 31.878906 L 77.339844 32.195312 C 77.289062 32.070312 77.195312 31.976562 77.054688 31.910156 C 76.914062 31.839844 76.757812 31.804688 76.585938 31.804688 C 76.414062 31.804688 76.28125 31.839844 76.183594 31.917969 C 76.089844 31.988281 76.039062 32.089844 76.039062 32.21875 C 76.039062 32.292969 76.082031 32.363281 76.167969 32.429688 C 76.253906 32.492188 76.378906 32.539062 76.539062 32.582031 L 76.984375 32.6875 C 77.230469 32.746094 77.433594 32.84375 77.589844 32.972656 C 77.746094 33.097656 77.863281 33.242188 77.9375 33.402344 C 78.011719 33.558594 78.050781 33.71875 78.050781 33.878906 C 78.050781 34.105469 77.984375 34.304688 77.855469 34.472656 C 77.726562 34.644531 77.554688 34.777344 77.332031 34.875 C 77.109375 34.964844 76.859375 35.011719 76.578125 35.011719 Z M 81.398438 33.394531 L 81.226562 32.386719 L 83.824219 29.640625 L 84.949219 29.640625 Z M 80.855469 34.917969 L 80.855469 29.640625 L 81.714844 29.640625 L 81.714844 34.917969 Z M 83.960938 34.917969 L 81.828125 32.234375 L 82.449219 31.699219 L 85.042969 34.917969 Z M 87.15625 35.011719 C 86.789062 35.011719 86.460938 34.925781 86.175781 34.761719 C 85.890625 34.589844 85.667969 34.355469 85.503906 34.058594 C 85.339844 33.761719 85.261719 33.421875 85.261719 33.035156 C 85.261719 32.644531 85.34375 32.304688 85.507812 32.007812 C 85.675781 31.710938 85.902344 31.480469 86.191406 31.3125 C 86.480469 31.144531 86.8125 31.058594 87.1875 31.058594 C 87.523438 31.058594 87.828125 31.144531 88.101562 31.320312 C 88.375 31.492188 88.585938 31.742188 88.742188 32.066406 C 88.90625 32.394531 88.984375 32.785156 88.984375 33.238281 L 86.015625 33.238281 L 86.128906 33.132812 C 86.128906 33.363281 86.179688 33.5625 86.28125 33.734375 C 86.382812 33.902344 86.515625 34.03125 86.679688 34.121094 C 86.847656 34.210938 87.03125 34.253906 87.234375 34.253906 C 87.464844 34.253906 87.65625 34.207031 87.808594 34.105469 C 87.957031 34 88.078125 33.863281 88.160156 33.699219 L 88.910156 34.015625 C 88.804688 34.214844 88.667969 34.390625 88.503906 34.542969 C 88.339844 34.695312 88.148438 34.808594 87.921875 34.890625 C 87.699219 34.96875 87.445312 35.011719 87.15625 35.011719 Z M 86.183594 32.695312 L 86.0625 32.589844 L 88.191406 32.589844 L 88.078125 32.695312 C 88.078125 32.488281 88.035156 32.320312 87.941406 32.1875 C 87.851562 32.054688 87.738281 31.953125 87.59375 31.886719 C 87.460938 31.816406 87.316406 31.78125 87.164062 31.78125 C 87.011719 31.78125 86.863281 31.816406 86.710938 31.886719 C 86.558594 31.953125 86.433594 32.054688 86.332031 32.1875 C 86.234375 32.320312 86.183594 32.488281 86.183594 32.695312 Z M 92.4375 34.917969 L 92.398438 34.21875 L 92.398438 29.640625 L 93.238281 29.640625 L 93.238281 34.917969 Z M 91.207031 35.011719 C 90.863281 35.011719 90.5625 34.929688 90.304688 34.769531 C 90.054688 34.601562 89.855469 34.371094 89.710938 34.074219 C 89.570312 33.777344 89.496094 33.429688 89.496094 33.035156 C 89.496094 32.632812 89.570312 32.285156 89.710938 31.992188 C 89.855469 31.695312 90.054688 31.46875 90.304688 31.304688 C 90.5625 31.140625 90.863281 31.058594 91.207031 31.058594 C 91.523438 31.058594 91.796875 31.140625 92.023438 31.304688 C 92.253906 31.46875 92.429688 31.695312 92.550781 31.992188 C 92.671875 32.285156 92.730469 32.632812 92.730469 33.035156 C 92.730469 33.429688 92.671875 33.777344 92.550781 34.074219 C 92.429688 34.371094 92.253906 34.601562 92.023438 34.769531 C 91.796875 34.929688 91.523438 35.011719 91.207031 35.011719 Z M 91.417969 34.242188 C 91.609375 34.242188 91.777344 34.191406 91.921875 34.089844 C 92.074219 33.984375 92.191406 33.839844 92.269531 33.660156 C 92.355469 33.480469 92.398438 33.269531 92.398438 33.035156 C 92.398438 32.796875 92.355469 32.589844 92.269531 32.40625 C 92.191406 32.226562 92.074219 32.085938 91.921875 31.984375 C 91.777344 31.882812 91.605469 31.835938 91.410156 31.835938 C 91.207031 31.835938 91.03125 31.882812 90.875 31.984375 C 90.71875 32.085938 90.59375 32.226562 90.503906 32.40625 C 90.417969 32.589844 90.371094 32.796875 90.367188 33.035156 C 90.371094 33.269531 90.417969 33.480469 90.503906 33.660156 C 90.59375 33.839844 90.71875 33.984375 90.875 34.089844 C 91.035156 34.191406 91.214844 34.242188 91.417969 34.242188 Z M 95.988281 35.011719 C 95.609375 35.011719 95.273438 34.925781 94.976562 34.761719 C 94.683594 34.589844 94.453125 34.355469 94.289062 34.058594 C 94.121094 33.761719 94.039062 33.421875 94.039062 33.035156 C 94.039062 32.644531 94.121094 32.304688 94.28125 32.007812 C 94.445312 31.710938 94.675781 31.480469 94.96875 31.3125 C 95.261719 31.144531 95.59375 31.058594 95.972656 31.058594 C 96.351562 31.058594 96.6875 31.144531 96.976562 31.3125 C 97.269531 31.480469 97.496094 31.710938 97.65625 32.007812 C 97.824219 32.304688 97.90625 32.644531 97.90625 33.035156 C 97.90625 33.421875 97.828125 33.761719 97.664062 34.058594 C 97.503906 34.355469 97.277344 34.589844 96.984375 34.761719 C 96.695312 34.925781 96.359375 35.011719 95.988281 35.011719 Z M 95.988281 34.234375 C 96.195312 34.234375 96.378906 34.183594 96.539062 34.082031 C 96.699219 33.976562 96.828125 33.835938 96.917969 33.660156 C 97.007812 33.480469 97.054688 33.269531 97.054688 33.035156 C 97.054688 32.796875 97.003906 32.589844 96.910156 32.414062 C 96.820312 32.234375 96.695312 32.09375 96.53125 31.992188 C 96.371094 31.886719 96.183594 31.835938 95.972656 31.835938 C 95.761719 31.835938 95.574219 31.882812 95.414062 31.984375 C 95.253906 32.085938 95.125 32.226562 95.035156 32.40625 C 94.945312 32.589844 94.898438 32.796875 94.898438 33.035156 C 94.898438 33.269531 94.945312 33.480469 95.035156 33.660156 C 95.132812 33.835938 95.261719 33.976562 95.421875 34.082031 C 95.585938 34.183594 95.777344 34.234375 95.988281 34.234375 Z M 99.523438 33.863281 L 99.011719 33.28125 L 100.976562 31.148438 L 101.996094 31.148438 Z M 98.714844 34.917969 L 98.714844 29.640625 L 99.5625 29.640625 L 99.5625 34.917969 Z M 101.117188 34.917969 L 99.789062 32.964844 L 100.339844 32.378906 L 102.125 34.917969 Z M 104.199219 35.011719 C 103.800781 35.011719 103.496094 34.914062 103.285156 34.714844 C 103.078125 34.515625 102.976562 34.226562 102.976562 33.855469 L 102.976562 29.972656 L 103.8125 29.972656 L 103.8125 33.699219 C 103.8125 33.875 103.855469 34.007812 103.933594 34.097656 C 104.019531 34.1875 104.144531 34.234375 104.304688 34.234375 C 104.355469 34.234375 104.410156 34.222656 104.472656 34.203125 C 104.53125 34.183594 104.601562 34.144531 104.675781 34.089844 L 104.984375 34.730469 C 104.855469 34.820312 104.722656 34.890625 104.59375 34.933594 C 104.460938 34.984375 104.332031 35.011719 104.199219 35.011719 Z M 102.347656 31.871094 L 102.347656 31.148438 L 104.835938 31.148438 L 104.835938 31.871094 Z M 107.371094 35.011719 C 107.003906 35.011719 106.675781 34.925781 106.386719 34.761719 C 106.105469 34.589844 105.882812 34.355469 105.714844 34.058594 C 105.554688 33.761719 105.472656 33.421875 105.472656 33.035156 C 105.472656 32.644531 105.558594 32.304688 105.722656 32.007812 C 105.890625 31.710938 106.117188 31.480469 106.402344 31.3125 C 106.695312 31.144531 107.027344 31.058594 107.402344 31.058594 C 107.738281 31.058594 108.042969 31.144531 108.316406 31.320312 C 108.585938 31.492188 108.800781 31.742188 108.957031 32.066406 C 109.117188 32.394531 109.199219 32.785156 109.199219 33.238281 L 106.230469 33.238281 L 106.34375 33.132812 C 106.34375 33.363281 106.394531 33.5625 106.496094 33.734375 C 106.59375 33.902344 106.730469 34.03125 106.894531 34.121094 C 107.0625 34.210938 107.246094 34.253906 107.445312 34.253906 C 107.679688 34.253906 107.871094 34.207031 108.019531 34.105469 C 108.171875 34 108.289062 33.863281 108.375 33.699219 L 109.125 34.015625 C 109.019531 34.214844 108.882812 34.390625 108.714844 34.542969 C 108.554688 34.695312 108.359375 34.808594 108.132812 34.890625 C 107.914062 34.96875 107.65625 35.011719 107.371094 35.011719 Z M 106.394531 32.695312 L 106.273438 32.589844 L 108.40625 32.589844 L 108.292969 32.695312 C 108.292969 32.488281 108.246094 32.320312 108.15625 32.1875 C 108.066406 32.054688 107.949219 31.953125 107.808594 31.886719 C 107.671875 31.816406 107.53125 31.78125 107.378906 31.78125 C 107.226562 31.78125 107.078125 31.816406 106.925781 31.886719 C 106.773438 31.953125 106.648438 32.054688 106.546875 32.1875 C 106.445312 32.320312 106.394531 32.488281 106.394531 32.695312 Z M 110.484375 32.914062 C 110.484375 32.503906 110.5625 32.171875 110.714844 31.910156 C 110.871094 31.648438 111.074219 31.453125 111.320312 31.328125 C 111.574219 31.199219 111.835938 31.132812 112.105469 31.132812 L 112.105469 31.941406 C 111.875 31.941406 111.65625 31.972656 111.449219 32.039062 C 111.25 32.097656 111.085938 32.199219 110.957031 32.339844 C 110.832031 32.480469 110.769531 32.667969 110.769531 32.898438 Z M 109.921875 34.917969 L 109.921875 31.148438 L 110.769531 31.148438 L 110.769531 34.917969 Z M 115.050781 34.917969 L 115.011719 34.210938 L 115.011719 32.980469 C 115.011719 32.722656 114.984375 32.511719 114.929688 32.339844 C 114.878906 32.164062 114.792969 32.03125 114.671875 31.941406 C 114.554688 31.84375 114.398438 31.796875 114.203125 31.796875 C 114.023438 31.796875 113.863281 31.835938 113.726562 31.910156 C 113.589844 31.984375 113.476562 32.101562 113.378906 32.265625 L 112.636719 31.992188 C 112.71875 31.828125 112.824219 31.671875 112.957031 31.53125 C 113.09375 31.386719 113.261719 31.269531 113.460938 31.183594 C 113.667969 31.101562 113.914062 31.058594 114.203125 31.058594 C 114.570312 31.058594 114.878906 31.128906 115.125 31.277344 C 115.371094 31.417969 115.554688 31.621094 115.667969 31.886719 C 115.789062 32.152344 115.851562 32.476562 115.851562 32.851562 L 115.828125 34.917969 Z M 113.960938 35.011719 C 113.507812 35.011719 113.15625 34.910156 112.902344 34.707031 C 112.65625 34.507812 112.53125 34.222656 112.53125 33.855469 C 112.53125 33.464844 112.664062 33.164062 112.925781 32.957031 C 113.191406 32.753906 113.5625 32.648438 114.035156 32.648438 L 115.050781 32.648438 L 115.050781 33.296875 L 114.308594 33.296875 C 113.972656 33.296875 113.734375 33.34375 113.597656 33.441406 C 113.460938 33.53125 113.394531 33.664062 113.394531 33.832031 C 113.394531 33.980469 113.453125 34.09375 113.566406 34.179688 C 113.6875 34.261719 113.855469 34.300781 114.066406 34.300781 C 114.257812 34.300781 114.425781 34.257812 114.566406 34.171875 C 114.707031 34.085938 114.816406 33.972656 114.890625 33.832031 C 114.972656 33.691406 115.011719 33.535156 115.011719 33.359375 L 115.261719 33.359375 C 115.261719 33.871094 115.15625 34.277344 114.949219 34.574219 C 114.746094 34.863281 114.414062 35.011719 113.960938 35.011719 Z M 116.78125 34.917969 L 116.78125 31.148438 L 117.578125 31.148438 L 117.628906 31.839844 L 117.628906 34.917969 Z M 119.34375 34.917969 L 119.34375 32.988281 L 120.191406 32.988281 L 120.191406 34.917969 Z M 119.34375 32.988281 C 119.34375 32.6875 119.308594 32.457031 119.238281 32.292969 C 119.171875 32.128906 119.078125 32.011719 118.953125 31.949219 C 118.832031 31.882812 118.6875 31.847656 118.519531 31.847656 C 118.238281 31.84375 118.019531 31.9375 117.863281 32.128906 C 117.707031 32.320312 117.628906 32.59375 117.628906 32.949219 L 117.3125 32.949219 C 117.3125 32.554688 117.371094 32.214844 117.484375 31.933594 C 117.601562 31.644531 117.769531 31.429688 117.984375 31.285156 C 118.199219 31.132812 118.457031 31.058594 118.753906 31.058594 C 119.058594 31.058594 119.316406 31.117188 119.527344 31.238281 C 119.742188 31.359375 119.90625 31.546875 120.015625 31.804688 C 120.132812 32.054688 120.191406 32.386719 120.191406 32.792969 L 120.191406 32.988281 Z M 125.605469 35.011719 C 125.070312 35.011719 124.597656 34.894531 124.175781 34.664062 C 123.765625 34.425781 123.441406 34.105469 123.203125 33.699219 C 122.964844 33.285156 122.847656 32.816406 122.847656 32.285156 C 122.847656 31.75 122.964844 31.277344 123.203125 30.867188 C 123.441406 30.457031 123.765625 30.132812 124.175781 29.902344 C 124.597656 29.667969 125.070312 29.546875 125.605469 29.546875 C 125.914062 29.546875 126.199219 29.597656 126.46875 29.691406 C 126.738281 29.789062 126.984375 29.917969 127.199219 30.082031 C 127.417969 30.246094 127.59375 30.433594 127.730469 30.648438 L 127.019531 31.101562 C 126.921875 30.957031 126.800781 30.824219 126.648438 30.710938 C 126.496094 30.59375 126.332031 30.507812 126.148438 30.445312 C 125.972656 30.378906 125.792969 30.347656 125.605469 30.347656 C 125.242188 30.347656 124.921875 30.429688 124.636719 30.597656 C 124.363281 30.761719 124.140625 30.992188 123.980469 31.285156 C 123.820312 31.570312 123.738281 31.90625 123.738281 32.285156 C 123.738281 32.660156 123.816406 32.992188 123.972656 33.28125 C 124.132812 33.574219 124.355469 33.804688 124.636719 33.96875 C 124.925781 34.136719 125.253906 34.21875 125.628906 34.21875 C 125.921875 34.21875 126.183594 34.15625 126.414062 34.035156 C 126.644531 33.917969 126.828125 33.746094 126.957031 33.53125 C 127.09375 33.316406 127.164062 33.066406 127.164062 32.785156 L 128 32.679688 C 128 33.15625 127.898438 33.570312 127.691406 33.925781 C 127.488281 34.269531 127.207031 34.539062 126.84375 34.730469 C 126.488281 34.917969 126.074219 35.011719 125.605469 35.011719 Z M 125.894531 32.851562 L 125.894531 32.144531 L 128 32.144531 L 128 32.730469 L 127.53125 32.851562 Z M 128.816406 34.917969 L 128.816406 31.148438 L 129.65625 31.148438 L 129.65625 34.917969 Z M 129.242188 30.429688 C 129.105469 30.429688 128.984375 30.382812 128.886719 30.289062 C 128.789062 30.1875 128.742188 30.070312 128.742188 29.933594 C 128.742188 29.796875 128.789062 29.679688 128.886719 29.585938 C 128.984375 29.492188 129.105469 29.441406 129.242188 29.441406 C 129.375 29.441406 129.492188 29.492188 129.589844 29.585938 C 129.6875 29.679688 129.738281 29.796875 129.738281 29.933594 C 129.738281 30.070312 129.6875 30.1875 129.589844 30.289062 C 129.492188 30.382812 129.375 30.429688 129.242188 30.429688 Z M 132.355469 36.527344 C 132.085938 36.527344 131.84375 36.503906 131.628906 36.457031 C 131.417969 36.414062 131.238281 36.359375 131.09375 36.300781 C 130.945312 36.238281 130.832031 36.183594 130.75 36.125 L 131.078125 35.449219 C 131.148438 35.484375 131.242188 35.527344 131.355469 35.574219 C 131.476562 35.632812 131.617188 35.679688 131.78125 35.71875 C 131.941406 35.757812 132.121094 35.78125 132.324219 35.78125 C 132.539062 35.78125 132.734375 35.734375 132.90625 35.644531 C 133.078125 35.558594 133.210938 35.425781 133.304688 35.242188 C 133.402344 35.0625 133.449219 34.832031 133.449219 34.550781 L 133.449219 31.148438 L 134.296875 31.148438 L 134.296875 34.527344 C 134.296875 34.953125 134.214844 35.316406 134.054688 35.613281 C 133.894531 35.914062 133.667969 36.140625 133.375 36.292969 C 133.082031 36.449219 132.742188 36.527344 132.355469 36.527344 Z M 132.226562 34.84375 C 131.882812 34.84375 131.582031 34.765625 131.324219 34.609375 C 131.074219 34.453125 130.875 34.238281 130.730469 33.960938 C 130.589844 33.679688 130.515625 33.355469 130.515625 32.988281 C 130.515625 32.597656 130.589844 32.257812 130.730469 31.96875 C 130.875 31.683594 131.074219 31.460938 131.324219 31.296875 C 131.582031 31.136719 131.882812 31.058594 132.226562 31.058594 C 132.53125 31.058594 132.800781 31.136719 133.027344 31.296875 C 133.257812 31.460938 133.4375 31.6875 133.5625 31.976562 C 133.6875 32.265625 133.75 32.605469 133.75 32.996094 C 133.75 33.367188 133.6875 33.691406 133.5625 33.96875 C 133.4375 34.246094 133.257812 34.460938 133.027344 34.617188 C 132.800781 34.769531 132.53125 34.84375 132.226562 34.84375 Z M 132.460938 34.128906 C 132.652344 34.128906 132.816406 34.078125 132.957031 33.976562 C 133.105469 33.875 133.21875 33.742188 133.296875 33.570312 C 133.378906 33.394531 133.417969 33.191406 133.417969 32.964844 C 133.417969 32.734375 133.378906 32.535156 133.296875 32.363281 C 133.21875 32.1875 133.105469 32.050781 132.957031 31.953125 C 132.8125 31.855469 132.644531 31.804688 132.453125 31.804688 C 132.25 31.804688 132.070312 31.855469 131.914062 31.953125 C 131.765625 32.050781 131.644531 32.1875 131.554688 32.363281 C 131.46875 32.535156 131.425781 32.734375 131.425781 32.964844 C 131.425781 33.191406 131.46875 33.394531 131.554688 33.570312 C 131.644531 33.742188 131.765625 33.875 131.921875 33.976562 C 132.078125 34.078125 132.257812 34.128906 132.460938 34.128906 Z M 135.359375 34.917969 L 135.359375 31.148438 L 136.199219 31.148438 L 136.199219 34.917969 Z M 135.78125 30.429688 C 135.648438 30.429688 135.527344 30.382812 135.425781 30.289062 C 135.332031 30.1875 135.285156 30.070312 135.285156 29.933594 C 135.285156 29.796875 135.332031 29.679688 135.425781 29.585938 C 135.527344 29.492188 135.648438 29.441406 135.78125 29.441406 C 135.917969 29.441406 136.035156 29.492188 136.128906 29.585938 C 136.230469 29.679688 136.28125 29.796875 136.28125 29.933594 C 136.28125 30.070312 136.230469 30.1875 136.128906 30.289062 C 136.035156 30.382812 135.917969 30.429688 135.78125 30.429688 Z M 141.347656 35.023438 C 140.929688 35.023438 140.558594 34.941406 140.242188 34.777344 C 139.929688 34.605469 139.6875 34.367188 139.511719 34.058594 C 139.339844 33.753906 139.253906 33.394531 139.253906 32.988281 L 139.253906 29.640625 L 140.128906 29.640625 L 140.128906 32.988281 C 140.128906 33.234375 140.179688 33.449219 140.28125 33.636719 C 140.386719 33.816406 140.53125 33.960938 140.71875 34.066406 C 140.90625 34.167969 141.121094 34.21875 141.359375 34.21875 C 141.609375 34.21875 141.824219 34.167969 142.011719 34.066406 C 142.203125 33.960938 142.347656 33.816406 142.449219 33.636719 C 142.550781 33.449219 142.601562 33.234375 142.601562 32.988281 L 142.601562 29.640625 L 143.476562 29.640625 L 143.476562 32.988281 C 143.476562 33.394531 143.390625 33.753906 143.210938 34.058594 C 143.042969 34.367188 142.792969 34.605469 142.472656 34.777344 C 142.15625 34.941406 141.78125 35.023438 141.347656 35.023438 Z M 144.574219 34.917969 L 144.574219 31.148438 L 145.367188 31.148438 L 145.417969 31.839844 L 145.417969 34.917969 Z M 147.132812 34.917969 L 147.132812 32.988281 L 147.980469 32.988281 L 147.980469 34.917969 Z M 147.132812 32.988281 C 147.132812 32.6875 147.097656 32.457031 147.027344 32.292969 C 146.964844 32.128906 146.867188 32.011719 146.742188 31.949219 C 146.621094 31.882812 146.476562 31.847656 146.3125 31.847656 C 146.027344 31.84375 145.808594 31.9375 145.652344 32.128906 C 145.496094 32.320312 145.417969 32.59375 145.417969 32.949219 L 145.101562 32.949219 C 145.101562 32.554688 145.160156 32.214844 145.277344 31.933594 C 145.390625 31.644531 145.558594 31.429688 145.773438 31.285156 C 145.992188 31.132812 146.246094 31.058594 146.546875 31.058594 C 146.847656 31.058594 147.105469 31.117188 147.316406 31.238281 C 147.53125 31.359375 147.695312 31.546875 147.808594 31.804688 C 147.921875 32.054688 147.980469 32.386719 147.980469 32.792969 L 147.980469 32.988281 Z M 148.921875 34.917969 L 148.921875 29.640625 L 149.765625 29.640625 L 149.765625 34.917969 Z M 151.484375 34.917969 L 151.484375 32.988281 L 152.328125 32.988281 L 152.328125 34.917969 Z M 151.484375 32.988281 C 151.484375 32.6875 151.449219 32.457031 151.378906 32.292969 C 151.304688 32.128906 151.207031 32.011719 151.082031 31.949219 C 150.960938 31.882812 150.820312 31.847656 150.660156 31.847656 C 150.371094 31.84375 150.152344 31.9375 149.996094 32.128906 C 149.84375 32.320312 149.765625 32.59375 149.765625 32.949219 L 149.441406 32.949219 C 149.441406 32.554688 149.5 32.214844 149.617188 31.933594 C 149.738281 31.644531 149.90625 31.429688 150.121094 31.285156 C 150.339844 31.132812 150.597656 31.058594 150.894531 31.058594 C 151.191406 31.058594 151.449219 31.117188 151.664062 31.238281 C 151.882812 31.359375 152.042969 31.546875 152.15625 31.804688 C 152.269531 32.054688 152.328125 32.386719 152.328125 32.792969 L 152.328125 32.988281 Z M 155.566406 34.917969 L 155.527344 34.210938 L 155.527344 32.980469 C 155.527344 32.722656 155.5 32.511719 155.445312 32.339844 C 155.394531 32.164062 155.308594 32.03125 155.1875 31.941406 C 155.074219 31.84375 154.917969 31.796875 154.71875 31.796875 C 154.539062 31.796875 154.378906 31.835938 154.246094 31.910156 C 154.109375 31.984375 153.992188 32.101562 153.898438 32.265625 L 153.15625 31.992188 C 153.238281 31.828125 153.34375 31.671875 153.472656 31.53125 C 153.609375 31.386719 153.777344 31.269531 153.980469 31.183594 C 154.1875 31.101562 154.433594 31.058594 154.71875 31.058594 C 155.089844 31.058594 155.394531 31.128906 155.640625 31.277344 C 155.890625 31.417969 156.070312 31.621094 156.1875 31.886719 C 156.308594 32.152344 156.367188 32.476562 156.367188 32.851562 L 156.34375 34.917969 Z M 154.480469 35.011719 C 154.023438 35.011719 153.671875 34.910156 153.421875 34.707031 C 153.175781 34.507812 153.050781 34.222656 153.050781 33.855469 C 153.050781 33.464844 153.179688 33.164062 153.445312 32.957031 C 153.710938 32.753906 154.082031 32.648438 154.554688 32.648438 L 155.566406 32.648438 L 155.566406 33.296875 L 154.828125 33.296875 C 154.488281 33.296875 154.253906 33.34375 154.117188 33.441406 C 153.980469 33.53125 153.910156 33.664062 153.910156 33.832031 C 153.910156 33.980469 153.96875 34.09375 154.085938 34.179688 C 154.207031 34.261719 154.371094 34.300781 154.585938 34.300781 C 154.777344 34.300781 154.941406 34.257812 155.082031 34.171875 C 155.222656 34.085938 155.332031 33.972656 155.40625 33.832031 C 155.488281 33.691406 155.527344 33.535156 155.527344 33.359375 L 155.777344 33.359375 C 155.777344 33.871094 155.675781 34.277344 155.46875 34.574219 C 155.261719 34.863281 154.933594 35.011719 154.480469 35.011719 Z M 158.675781 35.011719 C 158.425781 35.011719 158.191406 34.972656 157.980469 34.898438 C 157.769531 34.820312 157.585938 34.714844 157.4375 34.582031 C 157.285156 34.4375 157.167969 34.277344 157.089844 34.089844 L 157.820312 33.765625 C 157.898438 33.90625 158.007812 34.023438 158.15625 34.121094 C 158.304688 34.214844 158.472656 34.261719 158.652344 34.261719 C 158.851562 34.261719 159.007812 34.230469 159.121094 34.164062 C 159.242188 34.09375 159.304688 34 159.304688 33.878906 C 159.304688 33.761719 159.257812 33.675781 159.167969 33.613281 C 159.078125 33.550781 158.949219 33.496094 158.78125 33.457031 L 158.425781 33.359375 C 158.070312 33.265625 157.789062 33.125 157.585938 32.929688 C 157.386719 32.726562 157.285156 32.496094 157.285156 32.242188 C 157.285156 31.863281 157.40625 31.574219 157.648438 31.367188 C 157.894531 31.160156 158.246094 31.058594 158.707031 31.058594 C 158.9375 31.058594 159.148438 31.09375 159.339844 31.164062 C 159.539062 31.226562 159.707031 31.324219 159.847656 31.449219 C 159.988281 31.570312 160.085938 31.714844 160.140625 31.878906 L 159.4375 32.195312 C 159.390625 32.070312 159.292969 31.976562 159.152344 31.910156 C 159.011719 31.839844 158.855469 31.804688 158.683594 31.804688 C 158.511719 31.804688 158.378906 31.839844 158.28125 31.917969 C 158.1875 31.988281 158.140625 32.089844 158.140625 32.21875 C 158.140625 32.292969 158.183594 32.363281 158.269531 32.429688 C 158.351562 32.492188 158.476562 32.539062 158.636719 32.582031 L 159.082031 32.6875 C 159.332031 32.746094 159.53125 32.84375 159.6875 32.972656 C 159.84375 33.097656 159.960938 33.242188 160.035156 33.402344 C 160.113281 33.558594 160.148438 33.71875 160.148438 33.878906 C 160.148438 34.105469 160.082031 34.304688 159.953125 34.472656 C 159.828125 34.644531 159.652344 34.777344 159.429688 34.875 C 159.210938 34.964844 158.957031 35.011719 158.675781 35.011719 Z M 158.675781 35.011719 " fill-opacity="1" fill-rule="nonzero"/></svg>