<svg width="47" height="43" viewBox="0 0 47 43" fill="none" xmlns="http://www.w3.org/2000/svg">
<path fill-rule="evenodd" clip-rule="evenodd" d="M41.8334 0.875H5.16671C2.64587 0.875 0.583374 2.9375 0.583374 5.45833V37.5417C0.583374 40.0625 2.64587 42.125 5.16671 42.125H41.8334C44.3542 42.125 46.4167 40.0625 46.4167 37.5417V5.45833C46.4167 2.9375 44.3542 0.875 41.8334 0.875ZM18.9167 32.9583H7.45837V28.375H18.9167V32.9583ZM18.9167 23.7917H7.45837V19.2083H18.9167V23.7917ZM18.9167 14.625H7.45837V10.0417H18.9167V14.625ZM29.9625 28.375L23.5 21.8667L26.7313 18.6354L29.9625 21.8896L37.2271 14.625L40.4813 17.8792L29.9625 28.375Z" fill="#FFF1F1"/>
</svg>
