<svg width="34" height="34" viewBox="0 0 34 34" fill="none" xmlns="http://www.w3.org/2000/svg">
<rect width="34" height="34" rx="17" fill="#03CEA4" fill-opacity="0.1"/>
<g clip-path="url(#clip0_133_31)">
<path d="M25.0413 24.1876C24.9864 24.2826 24.9075 24.3615 24.8124 24.4164C24.7174 24.4712 24.6096 24.5001 24.4998 24.5001H9.49985C9.39019 24.4999 9.28249 24.471 9.18757 24.4161C9.09265 24.3612 9.01384 24.2823 8.95906 24.1873C8.90428 24.0923 8.87546 23.9845 8.87549 23.8749C8.87552 23.7652 8.90439 23.6575 8.95922 23.5626C10.1491 21.5055 11.9827 20.0305 14.1225 19.3313C13.064 18.7012 12.2417 17.741 11.7817 16.5983C11.3217 15.4556 11.2496 14.1935 11.5764 13.0058C11.9031 11.8181 12.6107 10.7705 13.5905 10.0239C14.5703 9.27728 15.768 8.87292 16.9998 8.87292C18.2317 8.87292 19.4294 9.27728 20.4092 10.0239C21.389 10.7705 22.0966 11.8181 22.4233 13.0058C22.7501 14.1935 22.678 15.4556 22.218 16.5983C21.758 17.741 20.9357 18.7012 19.8772 19.3313C22.017 20.0305 23.8506 21.5055 25.0405 23.5626C25.0954 23.6575 25.1245 23.7652 25.1246 23.8749C25.1247 23.9847 25.096 24.0925 25.0413 24.1876Z" fill="#03CEA4"/>
</g>
<defs>
<clipPath id="clip0_133_31">
<rect width="20" height="20" fill="white" transform="translate(7 7)"/>
</clipPath>
</defs>
</svg>
