<svg width="16" height="16" viewBox="0 0 16 16" fill="none" xmlns="http://www.w3.org/2000/svg">
<path d="M13.9346 3.93153L11.5116 2.41003L7.56663 8.69303L9.98813 10.213L13.9346 3.93153ZM7.19713 10.625L7.14363 12.0525L8.40713 11.384L9.58213 10.764L7.24563 9.29603L7.19713 10.625ZM14.5811 1.62003L13.3146 0.823527C13.1615 0.727427 12.9764 0.696092 12.8001 0.736409C12.6238 0.776727 12.4708 0.885397 12.3746 1.03853L11.8746 1.83253L14.2961 3.35353L14.7961 2.56053C14.9961 2.24053 14.9011 1.81903 14.5811 1.61903V1.62003ZM12.5986 13.53C12.5986 13.6675 12.4861 13.78 12.3486 13.78H2.84863C2.78233 13.78 2.71874 13.7537 2.67186 13.7068C2.62497 13.6599 2.59863 13.5963 2.59863 13.53V4.03003C2.59863 3.96372 2.62497 3.90013 2.67186 3.85325C2.71874 3.80637 2.78233 3.78003 2.84863 3.78003H9.47063L10.4126 2.28003H2.84863C1.88363 2.28003 1.09863 3.06503 1.09863 4.03003V13.53C1.09863 14.495 1.88363 15.28 2.84863 15.28H12.3486C13.3136 15.28 14.0986 14.495 14.0986 13.53V5.54853L12.5986 7.93653V13.5315V13.53Z" fill="white"/>
</svg>
