<svg width="14" height="14" viewBox="0 0 14 14" fill="none" xmlns="http://www.w3.org/2000/svg">
<path d="M7 6.38501C6.16933 6.38501 5.46167 6.09268 4.877 5.50801C4.29233 4.92334 4 4.21568 4 3.38501C4 2.55434 4.29233 1.84668 4.877 1.26201C5.46167 0.677343 6.16933 0.38501 7 0.38501C7.83067 0.38501 8.53833 0.677343 9.123 1.26201C9.70767 1.84668 10 2.55434 10 3.38501C10 4.21568 9.70767 4.92334 9.123 5.50801C8.53833 6.09268 7.83067 6.38501 7 6.38501ZM0 12.577V11.969C0 11.5563 0.12 11.1703 0.36 10.811C0.600667 10.451 0.924 10.1717 1.33 9.97301C2.274 9.52034 3.21867 9.18101 4.164 8.95501C5.10867 8.72834 6.054 8.61501 7 8.61501C7.946 8.61501 8.89167 8.72834 9.837 8.95501C10.7823 9.18168 11.7263 9.52101 12.669 9.97301C13.0757 10.1717 13.399 10.451 13.639 10.811C13.8797 11.1703 14 11.5563 14 11.969V12.577C14 12.8703 13.9003 13.117 13.701 13.317C13.5017 13.5157 13.255 13.615 12.961 13.615H1.04C0.746 13.615 0.499334 13.5153 0.3 13.316C0.100667 13.1167 0.000666667 12.8703 0 12.577Z" fill="white"/>
</svg>
