<svg width="14" height="16" viewBox="0 0 14 16" fill="none" xmlns="http://www.w3.org/2000/svg">
<path d="M9.487 7.99715C9.487 8.09564 9.4676 8.19317 9.42991 8.28416C9.39222 8.37516 9.33697 8.45784 9.26733 8.52748C9.19769 8.59712 9.11501 8.65237 9.02401 8.69006C8.93302 8.72775 8.83549 8.74715 8.737 8.74715C8.63851 8.74715 8.54098 8.72775 8.44999 8.69006C8.35899 8.65237 8.27631 8.59712 8.20667 8.52748C8.13703 8.45784 8.08178 8.37516 8.04409 8.28416C8.0064 8.19317 7.987 8.09564 7.987 7.99715C7.987 7.79824 8.06602 7.60747 8.20667 7.46682C8.34732 7.32617 8.53809 7.24715 8.737 7.24715C8.93591 7.24715 9.12668 7.32617 9.26733 7.46682C9.40798 7.60747 9.487 7.79824 9.487 7.99715ZM6.605 0.0111494C6.53216 -0.00449621 6.45674 -0.00366593 6.38426 0.0135794C6.31178 0.0308247 6.24407 0.0640491 6.18609 0.110824C6.1281 0.157599 6.08129 0.216741 6.0491 0.283928C6.0169 0.351115 6.00013 0.424647 6 0.49915V15.4992C5.99998 15.5737 6.01664 15.6474 6.04877 15.7147C6.0809 15.782 6.12769 15.8413 6.1857 15.8882C6.2437 15.935 6.31147 15.9684 6.38402 15.9857C6.45657 16.003 6.53208 16.0038 6.605 15.9881L13.605 14.4871C13.7168 14.4629 13.817 14.401 13.8887 14.3118C13.9604 14.2227 13.9993 14.1116 13.999 13.9971V1.99715C13.9988 1.88292 13.9595 1.77221 13.8876 1.68342C13.8158 1.59464 13.7157 1.53314 13.604 1.50915L6.605 0.0111494ZM7 14.8801V1.11715L13 2.40215V13.5941L7 14.8801ZM5.002 14.9951V13.9951H1V2.00015H5.002V1.00015H0.5C0.367392 1.00015 0.240215 1.05283 0.146447 1.1466C0.0526785 1.24036 0 1.36754 0 1.50015V14.4951C0 14.6278 0.0526785 14.7549 0.146447 14.8487C0.240215 14.9425 0.367392 14.9951 0.5 14.9951H5.002Z" fill="white"/>
</svg>
