<svg width="1440" height="340" viewBox="0 0 1440 340" fill="none" xmlns="http://www.w3.org/2000/svg">
<g opacity="0.1">
<path d="M155.408 30.5386C99.4403 30.5386 22.5857 237.377 -8.84558 340.796H312.058C283.161 237.377 211.376 30.5386 155.408 30.5386Z" fill="#0E99FE"/>
<mask id="mask0_1_889" style="mask-type:alpha" maskUnits="userSpaceOnUse" x="-9" y="30" width="322" height="311">
<path d="M155.408 30.5383C99.4401 30.5383 22.5855 237.377 -8.84583 340.796H312.058C283.161 237.377 211.376 30.5383 155.408 30.5383Z" fill="#0E99FE"/>
</mask>
<g mask="url(#mask0_1_889)">
<path d="M82.4055 153.729C79.3638 129.395 55.0299 171.979 44.3838 171.979C58.5786 129.902 97.31 39.0554 138.678 12.2881C190.387 -21.1711 216.242 38.1428 287.723 140.041C359.204 241.939 257.305 149.166 231.451 181.105C205.596 213.043 188.866 226.731 193.429 161.333C201.033 105.061 181.262 121.791 156.928 153.729C132.594 185.666 85.4473 178.062 82.4055 153.729Z" fill="#192C3F"/>
<path d="M82.4055 144.603C79.3638 120.269 55.0299 162.854 44.3838 162.854C58.5786 120.776 97.31 29.9301 138.678 3.16282C190.387 -30.2963 216.242 29.0176 287.723 130.916C359.204 232.814 257.305 140.041 231.451 171.979C205.596 203.918 188.866 217.605 193.429 152.208C201.033 95.9358 181.262 112.665 156.928 144.603C132.594 176.541 85.4473 168.937 82.4055 144.603Z" fill="#15385B"/>
</g>
<path d="M335.573 122.648C296.221 122.648 242.182 268.082 220.082 340.798H445.717C425.399 268.082 374.926 122.648 335.573 122.648Z" fill="#0E99FE"/>
<mask id="mask1_1_889" style="mask-type:alpha" maskUnits="userSpaceOnUse" x="220" y="122" width="226" height="219">
<path d="M335.573 122.649C296.221 122.649 242.182 268.082 220.082 340.799H445.717C425.4 268.082 374.926 122.649 335.573 122.649Z" fill="#0E99FE"/>
</mask>
<g mask="url(#mask1_1_889)">
<path d="M284.245 209.268C282.106 192.158 264.996 222.1 257.511 222.1C267.491 192.515 294.724 128.638 323.811 109.818C360.169 86.2916 378.348 127.997 428.608 199.644C478.868 271.291 407.221 206.06 389.042 228.517C370.863 250.973 359.1 260.597 362.308 214.615C367.655 175.049 353.753 186.811 336.643 209.268C319.534 231.724 286.383 226.378 284.245 209.268Z" fill="#192C3F"/>
<path d="M284.245 202.852C282.106 185.742 264.996 215.684 257.511 215.684C267.491 186.099 294.724 122.222 323.811 103.402C360.169 79.8756 378.348 121.581 428.608 193.228C478.868 264.875 407.221 199.644 389.042 222.101C370.863 244.557 359.1 254.181 362.308 208.199C367.655 168.633 353.753 180.395 336.643 202.852C319.534 225.308 286.383 219.962 284.245 202.852Z" fill="#15385B"/>
</g>
<path d="M-110.051 151.006H12.5974V340.554H-110.051V151.006Z" fill="#0E99FE"/>
<rect x="-126.777" y="100.833" width="133.798" height="39.0246" rx="0.935333" fill="#0074EA"/>
<rect x="-121.201" y="100.833" width="133.798" height="39.0246" rx="0.935333" fill="#0E99FE"/>
<rect x="-26.4272" y="106.406" width="27.8747" height="27.8747" rx="0.935333" fill="#09447B"/>
<rect x="-188.101" y="145.432" width="211.848" height="16.7248" rx="8.3624" fill="#09447B"/>
<path d="M722.314 151.006H844.962V340.554H722.314V151.006Z" fill="#0E99FE"/>
<rect x="727.887" y="123.131" width="11.1499" height="22.2997" fill="#0074EA"/>
<rect x="733.461" y="123.131" width="11.1499" height="22.2997" fill="#0E99FE"/>
<rect x="805.938" y="123.131" width="11.1499" height="22.2997" fill="#0074EA"/>
<rect x="811.513" y="123.131" width="11.1499" height="22.2997" fill="#0E99FE"/>
<rect x="705.589" y="100.833" width="133.798" height="39.0246" rx="0.935333" fill="#0074EA"/>
<rect x="711.161" y="100.833" width="133.798" height="39.0246" rx="0.935333" fill="#0E99FE"/>
<rect x="716.737" y="106.406" width="27.8747" height="27.8747" rx="0.935333" fill="#EBAC32"/>
<rect x="761.336" y="106.406" width="27.8747" height="27.8747" rx="0.935333" fill="#EBAC32"/>
<rect x="805.936" y="106.406" width="27.8747" height="27.8747" rx="0.935333" fill="#EBAC32"/>
<rect x="655.414" y="151.006" width="66.8992" height="189.548" fill="#0074EA"/>
<rect x="744.613" y="184.456" width="33.4496" height="22.2997" rx="11.1499" fill="#09447B"/>
<rect x="744.613" y="234.632" width="33.4496" height="22.2997" rx="11.1499" fill="#09447B"/>
<rect x="744.613" y="284.805" width="33.4496" height="22.2997" rx="11.1499" fill="#09447B"/>
<rect x="794.787" y="184.456" width="33.4496" height="22.2997" rx="11.1499" fill="#09447B"/>
<rect x="794.787" y="234.632" width="33.4496" height="22.2997" rx="11.1499" fill="#09447B"/>
<rect x="794.787" y="284.805" width="33.4496" height="22.2997" rx="11.1499" fill="#09447B"/>
<rect x="644.262" y="145.432" width="211.848" height="16.7248" rx="8.3624" fill="#09447B"/>
<path d="M644.262 153.794C644.262 149.176 648.006 145.432 652.625 145.432H722.312V162.156H652.625C648.006 162.156 644.262 158.412 644.262 153.794Z" fill="#07376A"/>
<path d="M510.949 15.9976H634.567V340.798H510.949V15.9976Z" fill="#0E99FE"/>
<rect x="445.505" y="15.9976" width="65.4449" height="324.801" fill="#0074EA"/>
<rect x="533.735" y="184.456" width="33.4496" height="22.2997" fill="#09447B"/>
<rect x="533.735" y="83.8672" width="33.4496" height="22.2997" fill="#09447B"/>
<rect x="533.735" y="37.812" width="33.4496" height="22.2997" fill="#09447B"/>
<rect x="533.735" y="234.633" width="33.4496" height="22.2997" fill="#09447B"/>
<rect x="533.735" y="134.042" width="33.4496" height="22.2997" fill="#09447B"/>
<rect x="533.735" y="284.807" width="33.4496" height="22.2997" fill="#09447B"/>
<rect x="583.91" y="184.456" width="33.4496" height="22.2997" fill="#09447B"/>
<rect x="583.91" y="83.8672" width="33.4496" height="22.2997" fill="#09447B"/>
<rect x="583.91" y="37.812" width="33.4496" height="22.2997" fill="#09447B"/>
<rect x="583.91" y="234.633" width="33.4496" height="22.2997" fill="#09447B"/>
<rect x="583.91" y="134.042" width="33.4496" height="22.2997" fill="#09447B"/>
<rect x="583.91" y="284.807" width="33.4496" height="22.2997" fill="#09447B"/>
<rect x="433.386" width="211.848" height="16.7248" rx="8.3624" fill="#09447B"/>
<path d="M433.386 8.3624C433.386 3.74398 437.13 0 441.748 0H511.435V16.7248H441.748C437.13 16.7248 433.386 12.9808 433.386 8.3624Z" fill="#07376A"/>
</g>
<g opacity="0.1">
<path d="M1266.11 30.5386C1210.14 30.5386 1133.29 237.377 1101.86 340.796H1422.76C1393.86 237.377 1322.08 30.5386 1266.11 30.5386Z" fill="#0E99FE"/>
<mask id="mask2_1_889" style="mask-type:alpha" maskUnits="userSpaceOnUse" x="1101" y="30" width="322" height="311">
<path d="M1266.11 30.5383C1210.14 30.5383 1133.29 237.377 1101.86 340.796H1422.76C1393.86 237.377 1322.08 30.5383 1266.11 30.5383Z" fill="#0E99FE"/>
</mask>
<g mask="url(#mask2_1_889)">
<path d="M1193.11 153.729C1190.07 129.395 1165.73 171.979 1155.09 171.979C1169.28 129.902 1208.01 39.0554 1249.38 12.2881C1301.09 -21.1711 1326.94 38.1428 1398.42 140.041C1469.91 241.939 1368.01 149.166 1342.15 181.105C1316.3 213.043 1299.57 226.731 1304.13 161.333C1311.73 105.061 1291.96 121.791 1267.63 153.729C1243.3 185.666 1196.15 178.062 1193.11 153.729Z" fill="#192C3F"/>
<path d="M1193.11 144.603C1190.07 120.269 1165.73 162.854 1155.09 162.854C1169.28 120.776 1208.01 29.9301 1249.38 3.16282C1301.09 -30.2963 1326.94 29.0176 1398.42 130.916C1469.91 232.814 1368.01 140.041 1342.15 171.979C1316.3 203.918 1299.57 217.605 1304.13 152.208C1311.73 95.9358 1291.96 112.665 1267.63 144.603C1243.3 176.541 1196.15 168.937 1193.11 144.603Z" fill="#15385B"/>
</g>
<path d="M1446.27 122.648C1406.92 122.648 1352.88 268.082 1330.78 340.798H1556.42C1536.1 268.082 1485.63 122.648 1446.27 122.648Z" fill="#0E99FE"/>
<mask id="mask3_1_889" style="mask-type:alpha" maskUnits="userSpaceOnUse" x="1330" y="122" width="227" height="219">
<path d="M1446.27 122.649C1406.92 122.649 1352.88 268.082 1330.78 340.799H1556.42C1536.1 268.082 1485.63 122.649 1446.27 122.649Z" fill="#0E99FE"/>
</mask>
<g mask="url(#mask3_1_889)">
<path d="M1394.94 209.268C1392.81 192.158 1375.7 222.1 1368.21 222.1C1378.19 192.515 1405.42 128.638 1434.51 109.818C1470.87 86.2916 1489.05 127.997 1539.31 199.644C1589.57 271.291 1517.92 206.06 1499.74 228.517C1481.56 250.973 1469.8 260.597 1473.01 214.615C1478.36 175.049 1464.45 186.811 1447.34 209.268C1430.23 231.724 1397.08 226.378 1394.94 209.268Z" fill="#192C3F"/>
<path d="M1394.94 202.852C1392.81 185.742 1375.7 215.684 1368.21 215.684C1378.19 186.099 1405.42 122.222 1434.51 103.402C1470.87 79.8756 1489.05 121.581 1539.31 193.228C1589.57 264.875 1517.92 199.644 1499.74 222.101C1481.56 244.557 1469.8 254.181 1473.01 208.199C1478.36 168.633 1464.45 180.395 1447.34 202.852C1430.23 225.308 1397.08 219.962 1394.94 202.852Z" fill="#15385B"/>
</g>
<path d="M1000.65 151.006H1123.3V340.554H1000.65V151.006Z" fill="#0E99FE"/>
<rect x="1006.22" y="123.132" width="11.1499" height="22.2997" fill="#0074EA"/>
<rect x="1011.8" y="123.133" width="11.1499" height="22.2997" fill="#0E99FE"/>
<rect x="1084.27" y="123.132" width="11.1499" height="22.2997" fill="#0074EA"/>
<rect x="1089.85" y="123.133" width="11.1499" height="22.2997" fill="#0E99FE"/>
<rect x="983.924" y="100.833" width="133.798" height="39.0246" rx="0.935333" fill="#0074EA"/>
<rect x="989.5" y="100.833" width="133.798" height="39.0246" rx="0.935333" fill="#0E99FE"/>
<rect x="995.074" y="106.406" width="27.8747" height="27.8747" rx="0.935333" fill="#09447B"/>
<rect x="1039.67" y="106.406" width="27.8747" height="27.8747" rx="0.935333" fill="#09447B"/>
<rect x="1084.27" y="106.406" width="27.8747" height="27.8747" rx="0.935333" fill="#09447B"/>
<rect x="933.75" y="151.006" width="66.8992" height="189.548" fill="#0074EA"/>
<rect x="1022.95" y="184.456" width="33.4496" height="22.2997" fill="#09447B"/>
<rect x="1022.95" y="234.632" width="33.4496" height="22.2997" fill="#09447B"/>
<rect x="1022.95" y="284.806" width="33.4496" height="22.2997" fill="#09447B"/>
<rect x="1073.12" y="184.456" width="33.4496" height="22.2997" fill="#09447B"/>
<rect x="1073.12" y="234.632" width="33.4496" height="22.2997" fill="#09447B"/>
<rect x="1073.12" y="284.806" width="33.4496" height="22.2997" fill="#09447B"/>
<rect x="922.6" y="145.432" width="211.848" height="16.7248" rx="8.3624" fill="#09447B"/>
<path d="M922.6 153.794C922.6 149.176 926.344 145.432 930.962 145.432H1000.65V162.156H930.962C926.344 162.156 922.6 158.412 922.6 153.794Z" fill="#07376A"/>
<path d="M896.78 287.741H961.332V340.556H896.78V287.741Z" fill="#0E99FE"/>
<path d="M911.448 323.831C911.448 311.515 921.432 301.531 933.748 301.531C946.064 301.531 956.048 311.515 956.048 323.831V340.556H911.448V323.831Z" fill="#09447B"/>
<rect x="861.569" y="287.741" width="35.2101" height="52.8152" fill="#0074EA"/>
<rect x="855.701" y="284.806" width="111.499" height="8.80253" rx="4.40127" fill="#09447B"/>
<path d="M855.701 289.208C855.701 286.777 857.671 284.806 860.102 284.806H896.779V293.609H860.102C857.671 293.609 855.701 291.638 855.701 289.208Z" fill="#07376A"/>
</g>
</svg>
