<svg width="38" height="38" viewBox="0 0 38 38" fill="none" xmlns="http://www.w3.org/2000/svg">
<rect width="38" height="38" rx="19" fill="#B34650" fill-opacity="0.1"/>
<g clip-path="url(#clip0_150_4294)">
<g clip-path="url(#clip1_150_4294)">
<g clip-path="url(#clip2_150_4294)">
<path d="M23.5 18.1074C24.155 18.1069 24.8011 18.2592 25.387 18.5521C25.9729 18.8451 26.4824 19.2706 26.875 19.7949" stroke="#78E08F" stroke-width="1.5" stroke-linecap="round" stroke-linejoin="round"/>
<path d="M11.125 19.7949C11.5176 19.2706 12.0271 18.8451 12.613 18.5521C13.1989 18.2592 13.845 18.1069 14.5 18.1074" stroke="#78E08F" stroke-width="1.5" stroke-linecap="round" stroke-linejoin="round"/>
<path d="M19 22.6074C20.5533 22.6074 21.8125 21.3482 21.8125 19.7949C21.8125 18.2416 20.5533 16.9824 19 16.9824C17.4467 16.9824 16.1875 18.2416 16.1875 19.7949C16.1875 21.3482 17.4467 22.6074 19 22.6074Z" stroke="#78E08F" stroke-width="1.5" stroke-linecap="round" stroke-linejoin="round"/>
<path d="M15.0625 24.8574C15.4663 24.1722 16.0419 23.6042 16.7325 23.2096C17.4231 22.815 18.2046 22.6074 19 22.6074C19.7954 22.6074 20.5769 22.815 21.2675 23.2096C21.9581 23.6042 22.5337 24.1722 22.9375 24.8574" stroke="#78E08F" stroke-width="1.5" stroke-linecap="round" stroke-linejoin="round"/>
<path d="M21.3203 15.2949C21.4255 14.8875 21.6428 14.5178 21.9476 14.2277C22.2524 13.9376 22.6324 13.7387 23.0446 13.6538C23.4567 13.5688 23.8843 13.6011 24.279 13.747C24.6737 13.8929 25.0195 14.1465 25.2773 14.4791C25.5351 14.8117 25.6944 15.2099 25.7372 15.6285C25.78 16.0471 25.7046 16.4693 25.5195 16.8472C25.3344 17.2251 25.047 17.5435 24.69 17.7662C24.3331 17.989 23.9208 18.1072 23.5 18.1074" stroke="#78E08F" stroke-width="1.5" stroke-linecap="round" stroke-linejoin="round"/>
<path d="M14.5 18.1074C14.0792 18.1072 13.6669 17.989 13.3099 17.7662C12.953 17.5435 12.6656 17.2251 12.4805 16.8472C12.2954 16.4693 12.22 16.0471 12.2628 15.6285C12.3056 15.2099 12.4649 14.8117 12.7227 14.4791C12.9804 14.1465 13.3263 13.8929 13.721 13.747C14.1156 13.6011 14.5433 13.5688 14.9554 13.6538C15.3675 13.7387 15.7476 13.9376 16.0523 14.2277C16.3571 14.5178 16.5745 14.8875 16.6797 15.2949" stroke="#78E08F" stroke-width="1.5" stroke-linecap="round" stroke-linejoin="round"/>
</g>
<g clip-path="url(#clip3_150_4294)">
<path d="M23.5 18.1074C24.155 18.1069 24.8011 18.2592 25.387 18.5521C25.9729 18.8451 26.4824 19.2706 26.875 19.7949" stroke="#B34650" stroke-width="1.5" stroke-linecap="round" stroke-linejoin="round"/>
<path d="M11.125 19.7949C11.5176 19.2706 12.0271 18.8451 12.613 18.5521C13.1989 18.2592 13.845 18.1069 14.5 18.1074" stroke="#B34650" stroke-width="1.5" stroke-linecap="round" stroke-linejoin="round"/>
<path d="M19 22.6074C20.5533 22.6074 21.8125 21.3482 21.8125 19.7949C21.8125 18.2416 20.5533 16.9824 19 16.9824C17.4467 16.9824 16.1875 18.2416 16.1875 19.7949C16.1875 21.3482 17.4467 22.6074 19 22.6074Z" stroke="#B34650" stroke-width="1.5" stroke-linecap="round" stroke-linejoin="round"/>
<path d="M15.0625 24.8574C15.4663 24.1722 16.0419 23.6042 16.7325 23.2096C17.4231 22.815 18.2046 22.6074 19 22.6074C19.7954 22.6074 20.5769 22.815 21.2675 23.2096C21.9581 23.6042 22.5337 24.1722 22.9375 24.8574" stroke="#B34650" stroke-width="1.5" stroke-linecap="round" stroke-linejoin="round"/>
<path d="M21.3203 15.2949C21.4255 14.8875 21.6428 14.5178 21.9476 14.2277C22.2524 13.9376 22.6324 13.7387 23.0446 13.6538C23.4567 13.5688 23.8843 13.6011 24.279 13.747C24.6737 13.8929 25.0195 14.1465 25.2773 14.4791C25.5351 14.8117 25.6944 15.2099 25.7372 15.6285C25.78 16.0471 25.7046 16.4693 25.5195 16.8472C25.3344 17.2251 25.047 17.5435 24.69 17.7662C24.3331 17.989 23.9208 18.1072 23.5 18.1074" stroke="#B34650" stroke-width="1.5" stroke-linecap="round" stroke-linejoin="round"/>
<path d="M14.5 18.1074C14.0792 18.1072 13.6669 17.989 13.3099 17.7662C12.953 17.5435 12.6656 17.2251 12.4805 16.8472C12.2954 16.4693 12.22 16.0471 12.2628 15.6285C12.3056 15.2099 12.4649 14.8117 12.7227 14.4791C12.9804 14.1465 13.3263 13.8929 13.721 13.747C14.1156 13.6011 14.5433 13.5688 14.9554 13.6538C15.3675 13.7387 15.7476 13.9376 16.0523 14.2277C16.3571 14.5178 16.5745 14.8875 16.6797 15.2949" stroke="#B34650" stroke-width="1.5" stroke-linecap="round" stroke-linejoin="round"/>
</g>
</g>
</g>
<defs>
<clipPath id="clip0_150_4294">
<rect width="24" height="24" fill="white" transform="translate(7.24512 6.62988)"/>
</clipPath>
<clipPath id="clip1_150_4294">
<rect width="24" height="24" fill="white" transform="translate(7 7)"/>
</clipPath>
<clipPath id="clip2_150_4294">
<rect width="18" height="18" fill="white" transform="translate(10 9.66992)"/>
</clipPath>
<clipPath id="clip3_150_4294">
<rect width="18" height="18" fill="white" transform="translate(10 9.66992)"/>
</clipPath>
</defs>
</svg>
