<svg width="21" height="20" viewBox="0 0 21 20" fill="none" xmlns="http://www.w3.org/2000/svg">
<g clip-path="url(#clip0_143_10897)">
<path d="M10.5 17.5C14.6421 17.5 18 14.1421 18 10C18 5.85786 14.6421 2.5 10.5 2.5C6.35786 2.5 3 5.85786 3 10C3 14.1421 6.35786 17.5 10.5 17.5Z" stroke="#595F74" stroke-linecap="round" stroke-linejoin="round"/>
<path d="M13 11.875C12.6065 12.3997 12.0578 12.7873 11.4318 12.9829C10.8057 13.1784 10.134 13.172 9.51179 12.9646C8.88956 12.7572 8.34837 12.3593 7.96487 11.8272C7.58137 11.2951 7.375 10.6559 7.375 10C7.375 9.34412 7.58137 8.70486 7.96487 8.17278C8.34837 7.6407 8.88956 7.24277 9.51179 7.03536C10.134 6.82796 10.8057 6.82158 11.4318 7.01715C12.0578 7.21271 12.6065 7.60029 13 8.125" stroke="#595F74" stroke-linecap="round" stroke-linejoin="round"/>
</g>
<defs>
<clipPath id="clip0_143_10897">
<rect width="20" height="20" fill="white" transform="translate(0.5)"/>
</clipPath>
</defs>
</svg>
