<svg width="14" height="14" viewBox="0 0 14 14" fill="none" xmlns="http://www.w3.org/2000/svg">
<path fill-rule="evenodd" clip-rule="evenodd" d="M4.66667 1.55556C4.66667 1.143 4.83056 0.747335 5.12228 0.455612C5.414 0.163888 5.80966 0 6.22222 0H7.77778C8.19034 0 8.586 0.163888 8.87772 0.455612C9.16945 0.747335 9.33333 1.143 9.33333 1.55556V4.66667H12.4444C12.857 4.66667 13.2527 4.83056 13.5444 5.12228C13.8361 5.414 14 5.80966 14 6.22222V7.77778C14 8.19034 13.8361 8.586 13.5444 8.87772C13.2527 9.16945 12.857 9.33333 12.4444 9.33333H9.33333V12.4444C9.33333 12.857 9.16945 13.2527 8.87772 13.5444C8.586 13.8361 8.19034 14 7.77778 14H6.22222C5.80966 14 5.414 13.8361 5.12228 13.5444C4.83056 13.2527 4.66667 12.857 4.66667 12.4444V9.33333H1.55556C1.143 9.33333 0.747335 9.16945 0.455612 8.87772C0.163888 8.586 0 8.19034 0 7.77778V6.22222C0 5.80966 0.163888 5.414 0.455612 5.12228C0.747335 4.83056 1.143 4.66667 1.55556 4.66667H4.66667V1.55556Z" fill="white"/>
</svg>
