<svg width="14" height="16" viewBox="0 0 14 16" fill="none" xmlns="http://www.w3.org/2000/svg">
<path d="M6.186 0.113049C6.24397 0.0662051 6.31168 0.0329145 6.38418 0.0156124C6.45668 -0.00168976 6.53212 -0.00256574 6.605 0.0130487L13.605 1.51205C13.7167 1.53627 13.8167 1.59801 13.8883 1.68698C13.96 1.77595 13.9991 1.88679 13.999 2.00105V14.001C13.999 14.1154 13.9598 14.2264 13.888 14.3154C13.8161 14.4044 13.7158 14.466 13.604 14.49L6.604 15.99C6.53131 16.0055 6.45609 16.0046 6.38381 15.9873C6.31153 15.97 6.24401 15.9369 6.18616 15.8902C6.12831 15.8436 6.08158 15.7846 6.04938 15.7176C6.01717 15.6507 6.00031 15.5774 6 15.503V0.503049C6.00002 0.428439 6.01673 0.354779 6.04891 0.287469C6.0811 0.220158 6.12794 0.160903 6.186 0.114049M9.502 8.00205C9.502 7.80314 9.42298 7.61237 9.28233 7.47172C9.14168 7.33107 8.95091 7.25205 8.752 7.25205C8.55309 7.25205 8.36232 7.33107 8.22167 7.47172C8.08102 7.61237 8.002 7.80314 8.002 8.00205C8.002 8.20096 8.08102 8.39173 8.22167 8.53238C8.36232 8.67303 8.55309 8.75205 8.752 8.75205C8.95091 8.75205 9.14168 8.67303 9.28233 8.53238C9.42298 8.39173 9.502 8.20096 9.502 8.00205ZM5.002 1.00405H0.5C0.367392 1.00405 0.240215 1.05673 0.146447 1.1505C0.0526785 1.24426 0 1.37144 0 1.50405V14.499C0 14.6317 0.0526785 14.7588 0.146447 14.8526C0.240215 14.9464 0.367392 14.999 0.5 14.999H5.002V1.00405Z" fill="white"/>
</svg>
